%TF.GenerationSoftware,KiCad,Pcbnew,8.0.5*%
%TF.CreationDate,2025-07-21T17:16:38-07:00*%
%TF.ProjectId,Penguin_Paddle,50656e67-7569-46e5-9f50-6164646c652e, 4*%
%TF.SameCoordinates,Original*%
%TF.FileFunction,Copper,L2,Bot*%
%TF.FilePolarity,Positive*%
%FSLAX46Y46*%
G04 Gerber Fmt 4.6, Leading zero omitted, Abs format (unit mm)*
G04 Created by KiCad (PCBNEW 8.0.5) date 2025-07-21 17:16:38*
%MOMM*%
%LPD*%
G01*
G04 APERTURE LIST*
G04 Aperture macros list*
%AMRoundRect*
0 Rectangle with rounded corners*
0 $1 Rounding radius*
0 $2 $3 $4 $5 $6 $7 $8 $9 X,Y pos of 4 corners*
0 Add a 4 corners polygon primitive as box body*
4,1,4,$2,$3,$4,$5,$6,$7,$8,$9,$2,$3,0*
0 Add four circle primitives for the rounded corners*
1,1,$1+$1,$2,$3*
1,1,$1+$1,$4,$5*
1,1,$1+$1,$6,$7*
1,1,$1+$1,$8,$9*
0 Add four rect primitives between the rounded corners*
20,1,$1+$1,$2,$3,$4,$5,0*
20,1,$1+$1,$4,$5,$6,$7,0*
20,1,$1+$1,$6,$7,$8,$9,0*
20,1,$1+$1,$8,$9,$2,$3,0*%
G04 Aperture macros list end*
%TA.AperFunction,ComponentPad*%
%ADD10RoundRect,0.250000X-0.550000X-0.550000X0.550000X-0.550000X0.550000X0.550000X-0.550000X0.550000X0*%
%TD*%
%TA.AperFunction,ComponentPad*%
%ADD11R,1.100000X1.800000*%
%TD*%
%TA.AperFunction,ComponentPad*%
%ADD12RoundRect,0.275000X0.275000X0.625000X-0.275000X0.625000X-0.275000X-0.625000X0.275000X-0.625000X0*%
%TD*%
%TA.AperFunction,ComponentPad*%
%ADD13O,4.000000X4.000000*%
%TD*%
%TA.AperFunction,ComponentPad*%
%ADD14R,1.800000X1.800000*%
%TD*%
%TA.AperFunction,ComponentPad*%
%ADD15C,1.800000*%
%TD*%
%TA.AperFunction,ComponentPad*%
%ADD16R,1.700000X1.700000*%
%TD*%
%TA.AperFunction,ComponentPad*%
%ADD17C,1.700000*%
%TD*%
%TA.AperFunction,ComponentPad*%
%ADD18O,2.800000X1.800000*%
%TD*%
%TA.AperFunction,ComponentPad*%
%ADD19R,2.000000X2.000000*%
%TD*%
%TA.AperFunction,ComponentPad*%
%ADD20C,2.000000*%
%TD*%
%TA.AperFunction,ComponentPad*%
%ADD21C,1.600000*%
%TD*%
%TA.AperFunction,ComponentPad*%
%ADD22O,1.600000X1.600000*%
%TD*%
%TA.AperFunction,ComponentPad*%
%ADD23O,2.200000X3.500000*%
%TD*%
%TA.AperFunction,ComponentPad*%
%ADD24R,1.500000X2.500000*%
%TD*%
%TA.AperFunction,ComponentPad*%
%ADD25O,1.500000X2.500000*%
%TD*%
%TA.AperFunction,Conductor*%
%ADD26C,0.200000*%
%TD*%
G04 APERTURE END LIST*
D10*
%TO.P,J3,1,Pin_1*%
%TO.N,Net-(J3-Pin_1)*%
X221410000Y-113480000D03*
%TD*%
D11*
%TO.P,Q1,1,C*%
%TO.N,Net-(Q1-C)*%
X248870000Y-105260000D03*
D12*
%TO.P,Q1,2,B*%
%TO.N,Net-(Q1-B)*%
X247600000Y-107330000D03*
%TO.P,Q1,3,E*%
%TO.N,GND*%
X246330000Y-105260000D03*
%TD*%
D13*
%TO.P,RV2,*%
%TO.N,*%
X195140000Y-102485000D03*
X204640000Y-102485000D03*
D14*
%TO.P,RV2,1,1*%
%TO.N,+3V3*%
X197390000Y-109985000D03*
D15*
%TO.P,RV2,2,2*%
%TO.N,Net-(U1-GPIO5{slash}D4{slash}I2C_SDA)*%
X199890000Y-109985000D03*
%TO.P,RV2,3,3*%
%TO.N,GND*%
X202390000Y-109985000D03*
%TD*%
D13*
%TO.P,RV1,*%
%TO.N,*%
X210080000Y-102355000D03*
X219580000Y-102355000D03*
D14*
%TO.P,RV1,1,1*%
%TO.N,+3V3*%
X212330000Y-109855000D03*
D15*
%TO.P,RV1,2,2*%
%TO.N,Net-(U1-GPIO9{slash}D5{slash}I2C_SCL)*%
X214830000Y-109855000D03*
%TO.P,RV1,3,3*%
%TO.N,GND*%
X217330000Y-109855000D03*
%TD*%
D16*
%TO.P,U1,1,GPIO1/D0/A0*%
%TO.N,Net-(U1-GPIO1{slash}D0{slash}A0)*%
X224980000Y-85480000D03*
D17*
%TO.P,U1,2,GPIO2/DA/A1*%
%TO.N,Net-(U1-GPIO2{slash}DA{slash}A1)*%
X224980000Y-88020000D03*
%TO.P,U1,3,GPIO3/D2/A2*%
%TO.N,Net-(SW1-B)*%
X224980000Y-90560000D03*
%TO.P,U1,4,GPIO4/D3/A3*%
%TO.N,Net-(SW2-B)*%
X224980000Y-93100000D03*
%TO.P,U1,5,GPIO5/D4/I2C_SDA*%
%TO.N,Net-(U1-GPIO5{slash}D4{slash}I2C_SDA)*%
X224980000Y-95640000D03*
%TO.P,U1,6,GPIO9/D5/I2C_SCL*%
%TO.N,Net-(U1-GPIO9{slash}D5{slash}I2C_SCL)*%
X224980000Y-98180000D03*
%TO.P,U1,7,U0TXD/D6/TX*%
%TO.N,unconnected-(U1-U0TXD{slash}D6{slash}TX-Pad7)*%
X224980000Y-100720000D03*
%TO.P,U1,8,U0RXD/D7/RX*%
%TO.N,unconnected-(U1-U0RXD{slash}D7{slash}RX-Pad8)*%
X240230000Y-100720000D03*
%TO.P,U1,9,GPIO7/D8/A8/SCK*%
%TO.N,Net-(J1-Pin_1)*%
X240230000Y-98180000D03*
%TO.P,U1,10,GPIO8/D9/A9/MISO*%
%TO.N,Net-(J3-Pin_1)*%
X240230000Y-95640000D03*
%TO.P,U1,11,GPIO9/D10/A10/MOSI*%
%TO.N,unconnected-(U1-GPIO9{slash}D10{slash}A10{slash}MOSI-Pad11)*%
X240230000Y-93100000D03*
%TO.P,U1,12,VCC_3V3*%
%TO.N,+3V3*%
X240230000Y-90560000D03*
%TO.P,U1,13,GND*%
%TO.N,GND*%
X240230000Y-88020000D03*
%TO.P,U1,14,VBUS*%
%TO.N,unconnected-(U1-VBUS-Pad14)*%
X240230000Y-85480000D03*
%TD*%
D10*
%TO.P,J1,1,Pin_1*%
%TO.N,Net-(J1-Pin_1)*%
X227170000Y-113460000D03*
%TD*%
D18*
%TO.P,J2,R*%
%TO.N,Net-(Q1-C)*%
X248960000Y-94700000D03*
%TO.P,J2,S*%
X246960000Y-86800000D03*
%TO.P,J2,T*%
X248960000Y-89200000D03*
%TD*%
D19*
%TO.P,LS1,1*%
%TO.N,GND*%
X202170000Y-90580000D03*
D20*
%TO.P,LS1,2*%
%TO.N,Net-(U1-GPIO1{slash}D0{slash}A0)*%
X202170000Y-85580000D03*
%TD*%
D21*
%TO.P,R1,1*%
%TO.N,Net-(Q1-B)*%
X239650000Y-106960000D03*
D22*
%TO.P,R1,2*%
%TO.N,Net-(U1-GPIO2{slash}DA{slash}A1)*%
X232030000Y-106960000D03*
%TD*%
D23*
%TO.P,SW2,*%
%TO.N,*%
X210580000Y-91840000D03*
X218780000Y-91840000D03*
D24*
%TO.P,SW2,1,A*%
%TO.N,+3V3*%
X212680000Y-91840000D03*
D25*
%TO.P,SW2,2,B*%
%TO.N,Net-(SW2-B)*%
X214680000Y-91840000D03*
%TO.P,SW2,3*%
%TO.N,N/C*%
X216680000Y-91840000D03*
%TD*%
D23*
%TO.P,SW1,*%
%TO.N,*%
X210770000Y-84910000D03*
X218970000Y-84910000D03*
D24*
%TO.P,SW1,1,A*%
%TO.N,+3V3*%
X212870000Y-84910000D03*
D25*
%TO.P,SW1,2,B*%
%TO.N,Net-(SW1-B)*%
X214870000Y-84910000D03*
%TO.P,SW1,3*%
%TO.N,N/C*%
X216870000Y-84910000D03*
%TD*%
D26*
%TO.N,Net-(Q1-B)*%
X244590000Y-105520000D02*
X246000000Y-106930000D01*
X241370000Y-105520000D02*
X244590000Y-105520000D01*
X239930000Y-106960000D02*
X241370000Y-105520000D01*
X246000000Y-106930000D02*
X247600000Y-106930000D01*
%TO.N,GND*%
X216130000Y-111055000D02*
X217330000Y-109855000D01*
X202390000Y-109985000D02*
X203460000Y-111055000D01*
X235425635Y-105120000D02*
X230690635Y-109855000D01*
X202170000Y-90580000D02*
X202170000Y-109765000D01*
X230690635Y-109855000D02*
X217330000Y-109855000D01*
X245790000Y-105120000D02*
X235425635Y-105120000D01*
X246330000Y-105660000D02*
X245790000Y-105120000D01*
X202170000Y-109765000D02*
X202390000Y-109985000D01*
X203460000Y-111055000D02*
X216130000Y-111055000D01*
%TO.N,Net-(U1-GPIO2{slash}DA{slash}A1)*%
X226690000Y-89775000D02*
X225045000Y-88130000D01*
X225230000Y-88130000D02*
X225045000Y-88130000D01*
X226690000Y-101620000D02*
X226690000Y-89775000D01*
X232030000Y-106960000D02*
X226690000Y-101620000D01*
%TO.N,+3V3*%
X212330000Y-109855000D02*
X212680000Y-109505000D01*
X212680000Y-109505000D02*
X212680000Y-91840000D01*
%TO.N,Net-(U1-GPIO1{slash}D0{slash}A0)*%
X203550000Y-86960000D02*
X223500000Y-86960000D01*
X223500000Y-86960000D02*
X224980000Y-85480000D01*
X202170000Y-85580000D02*
X203550000Y-86960000D01*
%TD*%
M02*
