M48
; DRILL file {KiCad 8.0.5} date 2025-07-21T17:16:53-0700
; FORMAT={-:-/ absolute / inch / decimal}
; #@! TF.CreationDate,2025-07-21T17:16:53-07:00
; #@! TF.GenerationSoftware,Kicad,Pcbnew,8.0.5
; #@! TF.FileFunction,Plated,1,2,PTH
FMAT,2
INCH
; #@! TA.AperFunction,Plated,PTH,ComponentDrill
T1C0.0236
; #@! TA.AperFunction,Plated,PTH,ComponentDrill
T2C0.0295
; #@! TA.AperFunction,Plated,PTH,ComponentDrill
T3C0.0315
; #@! TA.AperFunction,Plated,PTH,ComponentDrill
T4C0.0394
; #@! TA.AperFunction,Plated,PTH,ComponentDrill
T5C0.0591
; #@! TA.AperFunction,Plated,PTH,ComponentDrill
T6C0.0787
%
G90
G05
T1
X8.7169Y-4.4677
X8.9437Y-4.4669
T2
X9.698Y-4.1598
X9.748Y-4.2098
X9.798Y-4.1598
T3
X8.3732Y-3.6157
X8.3807Y-3.3429
X8.452Y-3.6157
X8.4594Y-3.3429
X8.5307Y-3.6157
X8.5382Y-3.3429
X9.135Y-4.211
X9.435Y-4.211
T4
X7.7713Y-4.3301
X7.8697Y-4.3301
X7.9594Y-3.3693
X7.9594Y-3.5661
X7.9681Y-4.3301
X8.3594Y-4.325
X8.4579Y-4.325
X8.5563Y-4.325
X8.8575Y-3.3654
X8.8575Y-3.4654
X8.8575Y-3.5654
X8.8575Y-3.6654
X8.8575Y-3.7654
X8.8575Y-3.8654
X8.8575Y-3.9654
X9.4579Y-3.3654
X9.4579Y-3.4654
X9.4579Y-3.5654
X9.4579Y-3.6654
X9.4579Y-3.7654
X9.4579Y-3.8654
X9.4579Y-3.9654
T5
X8.2906Y-3.6157
X8.298Y-3.3429
X8.6134Y-3.6157
X8.6209Y-3.3429
T6
X7.6827Y-4.0348
X8.0567Y-4.0348
X8.2709Y-4.0297
X8.6449Y-4.0297
T4
G00X9.7031Y-3.4173
M15
G01X9.7425Y-3.4173
M16
G05
G00X9.7819Y-3.5118
M15
G01X9.8213Y-3.5118
M16
G05
G00X9.7819Y-3.7283
M15
G01X9.8213Y-3.7283
M16
G05
M30
