%TF.GenerationSoftware,KiCad,Pcbnew,8.0.5*%
%TF.CreationDate,2025-07-21T17:16:39-07:00*%
%TF.ProjectId,Penguin_Paddle,50656e67-7569-46e5-9f50-6164646c652e, 4*%
%TF.SameCoordinates,Original*%
%TF.FileFunction,Legend,Top*%
%TF.FilePolarity,Positive*%
%FSLAX46Y46*%
G04 Gerber Fmt 4.6, Leading zero omitted, Abs format (unit mm)*
G04 Created by KiCad (PCBNEW 8.0.5) date 2025-07-21 17:16:39*
%MOMM*%
%LPD*%
G01*
G04 APERTURE LIST*
%ADD10C,0.150000*%
%ADD11C,0.101600*%
%ADD12C,0.120000*%
%ADD13C,0.127000*%
%ADD14C,0.254000*%
%ADD15C,0.025400*%
G04 APERTURE END LIST*
D10*
X221076666Y-110934819D02*
X221076666Y-111649104D01*
X221076666Y-111649104D02*
X221029047Y-111791961D01*
X221029047Y-111791961D02*
X220933809Y-111887200D01*
X220933809Y-111887200D02*
X220790952Y-111934819D01*
X220790952Y-111934819D02*
X220695714Y-111934819D01*
X221457619Y-110934819D02*
X222076666Y-110934819D01*
X222076666Y-110934819D02*
X221743333Y-111315771D01*
X221743333Y-111315771D02*
X221886190Y-111315771D01*
X221886190Y-111315771D02*
X221981428Y-111363390D01*
X221981428Y-111363390D02*
X222029047Y-111411009D01*
X222029047Y-111411009D02*
X222076666Y-111506247D01*
X222076666Y-111506247D02*
X222076666Y-111744342D01*
X222076666Y-111744342D02*
X222029047Y-111839580D01*
X222029047Y-111839580D02*
X221981428Y-111887200D01*
X221981428Y-111887200D02*
X221886190Y-111934819D01*
X221886190Y-111934819D02*
X221600476Y-111934819D01*
X221600476Y-111934819D02*
X221505238Y-111887200D01*
X221505238Y-111887200D02*
X221457619Y-111839580D01*
X251324761Y-106610057D02*
X251229523Y-106562438D01*
X251229523Y-106562438D02*
X251134285Y-106467200D01*
X251134285Y-106467200D02*
X250991428Y-106324342D01*
X250991428Y-106324342D02*
X250896190Y-106276723D01*
X250896190Y-106276723D02*
X250800952Y-106276723D01*
X250848571Y-106514819D02*
X250753333Y-106467200D01*
X250753333Y-106467200D02*
X250658095Y-106371961D01*
X250658095Y-106371961D02*
X250610476Y-106181485D01*
X250610476Y-106181485D02*
X250610476Y-105848152D01*
X250610476Y-105848152D02*
X250658095Y-105657676D01*
X250658095Y-105657676D02*
X250753333Y-105562438D01*
X250753333Y-105562438D02*
X250848571Y-105514819D01*
X250848571Y-105514819D02*
X251039047Y-105514819D01*
X251039047Y-105514819D02*
X251134285Y-105562438D01*
X251134285Y-105562438D02*
X251229523Y-105657676D01*
X251229523Y-105657676D02*
X251277142Y-105848152D01*
X251277142Y-105848152D02*
X251277142Y-106181485D01*
X251277142Y-106181485D02*
X251229523Y-106371961D01*
X251229523Y-106371961D02*
X251134285Y-106467200D01*
X251134285Y-106467200D02*
X251039047Y-106514819D01*
X251039047Y-106514819D02*
X250848571Y-106514819D01*
X252229523Y-106514819D02*
X251658095Y-106514819D01*
X251943809Y-106514819D02*
X251943809Y-105514819D01*
X251943809Y-105514819D02*
X251848571Y-105657676D01*
X251848571Y-105657676D02*
X251753333Y-105752914D01*
X251753333Y-105752914D02*
X251658095Y-105800533D01*
X199294761Y-96939819D02*
X198961428Y-96463628D01*
X198723333Y-96939819D02*
X198723333Y-95939819D01*
X198723333Y-95939819D02*
X199104285Y-95939819D01*
X199104285Y-95939819D02*
X199199523Y-95987438D01*
X199199523Y-95987438D02*
X199247142Y-96035057D01*
X199247142Y-96035057D02*
X199294761Y-96130295D01*
X199294761Y-96130295D02*
X199294761Y-96273152D01*
X199294761Y-96273152D02*
X199247142Y-96368390D01*
X199247142Y-96368390D02*
X199199523Y-96416009D01*
X199199523Y-96416009D02*
X199104285Y-96463628D01*
X199104285Y-96463628D02*
X198723333Y-96463628D01*
X199580476Y-95939819D02*
X199913809Y-96939819D01*
X199913809Y-96939819D02*
X200247142Y-95939819D01*
X200532857Y-96035057D02*
X200580476Y-95987438D01*
X200580476Y-95987438D02*
X200675714Y-95939819D01*
X200675714Y-95939819D02*
X200913809Y-95939819D01*
X200913809Y-95939819D02*
X201009047Y-95987438D01*
X201009047Y-95987438D02*
X201056666Y-96035057D01*
X201056666Y-96035057D02*
X201104285Y-96130295D01*
X201104285Y-96130295D02*
X201104285Y-96225533D01*
X201104285Y-96225533D02*
X201056666Y-96368390D01*
X201056666Y-96368390D02*
X200485238Y-96939819D01*
X200485238Y-96939819D02*
X201104285Y-96939819D01*
X214234761Y-96809819D02*
X213901428Y-96333628D01*
X213663333Y-96809819D02*
X213663333Y-95809819D01*
X213663333Y-95809819D02*
X214044285Y-95809819D01*
X214044285Y-95809819D02*
X214139523Y-95857438D01*
X214139523Y-95857438D02*
X214187142Y-95905057D01*
X214187142Y-95905057D02*
X214234761Y-96000295D01*
X214234761Y-96000295D02*
X214234761Y-96143152D01*
X214234761Y-96143152D02*
X214187142Y-96238390D01*
X214187142Y-96238390D02*
X214139523Y-96286009D01*
X214139523Y-96286009D02*
X214044285Y-96333628D01*
X214044285Y-96333628D02*
X213663333Y-96333628D01*
X214520476Y-95809819D02*
X214853809Y-96809819D01*
X214853809Y-96809819D02*
X215187142Y-95809819D01*
X216044285Y-96809819D02*
X215472857Y-96809819D01*
X215758571Y-96809819D02*
X215758571Y-95809819D01*
X215758571Y-95809819D02*
X215663333Y-95952676D01*
X215663333Y-95952676D02*
X215568095Y-96047914D01*
X215568095Y-96047914D02*
X215472857Y-96095533D01*
X220536666Y-119374819D02*
X220536666Y-120089104D01*
X220536666Y-120089104D02*
X220489047Y-120231961D01*
X220489047Y-120231961D02*
X220393809Y-120327200D01*
X220393809Y-120327200D02*
X220250952Y-120374819D01*
X220250952Y-120374819D02*
X220155714Y-120374819D01*
X221012857Y-120374819D02*
X221012857Y-119374819D01*
X221012857Y-119374819D02*
X221393809Y-119374819D01*
X221393809Y-119374819D02*
X221489047Y-119422438D01*
X221489047Y-119422438D02*
X221536666Y-119470057D01*
X221536666Y-119470057D02*
X221584285Y-119565295D01*
X221584285Y-119565295D02*
X221584285Y-119708152D01*
X221584285Y-119708152D02*
X221536666Y-119803390D01*
X221536666Y-119803390D02*
X221489047Y-119851009D01*
X221489047Y-119851009D02*
X221393809Y-119898628D01*
X221393809Y-119898628D02*
X221012857Y-119898628D01*
X222536666Y-120374819D02*
X221965238Y-120374819D01*
X222250952Y-120374819D02*
X222250952Y-119374819D01*
X222250952Y-119374819D02*
X222155714Y-119517676D01*
X222155714Y-119517676D02*
X222060476Y-119612914D01*
X222060476Y-119612914D02*
X221965238Y-119660533D01*
D11*
X231927666Y-95156985D02*
X231927666Y-95876652D01*
X231927666Y-95876652D02*
X231970000Y-95961318D01*
X231970000Y-95961318D02*
X232012333Y-96003652D01*
X232012333Y-96003652D02*
X232097000Y-96045985D01*
X232097000Y-96045985D02*
X232266333Y-96045985D01*
X232266333Y-96045985D02*
X232351000Y-96003652D01*
X232351000Y-96003652D02*
X232393333Y-95961318D01*
X232393333Y-95961318D02*
X232435666Y-95876652D01*
X232435666Y-95876652D02*
X232435666Y-95156985D01*
X233324666Y-96045985D02*
X232816666Y-96045985D01*
X233070666Y-96045985D02*
X233070666Y-95156985D01*
X233070666Y-95156985D02*
X232985999Y-95283985D01*
X232985999Y-95283985D02*
X232901333Y-95368652D01*
X232901333Y-95368652D02*
X232816666Y-95410985D01*
D10*
X227843095Y-92007200D02*
X227985952Y-92054819D01*
X227985952Y-92054819D02*
X228224047Y-92054819D01*
X228224047Y-92054819D02*
X228319285Y-92007200D01*
X228319285Y-92007200D02*
X228366904Y-91959580D01*
X228366904Y-91959580D02*
X228414523Y-91864342D01*
X228414523Y-91864342D02*
X228414523Y-91769104D01*
X228414523Y-91769104D02*
X228366904Y-91673866D01*
X228366904Y-91673866D02*
X228319285Y-91626247D01*
X228319285Y-91626247D02*
X228224047Y-91578628D01*
X228224047Y-91578628D02*
X228033571Y-91531009D01*
X228033571Y-91531009D02*
X227938333Y-91483390D01*
X227938333Y-91483390D02*
X227890714Y-91435771D01*
X227890714Y-91435771D02*
X227843095Y-91340533D01*
X227843095Y-91340533D02*
X227843095Y-91245295D01*
X227843095Y-91245295D02*
X227890714Y-91150057D01*
X227890714Y-91150057D02*
X227938333Y-91102438D01*
X227938333Y-91102438D02*
X228033571Y-91054819D01*
X228033571Y-91054819D02*
X228271666Y-91054819D01*
X228271666Y-91054819D02*
X228414523Y-91102438D01*
X229224047Y-92007200D02*
X229128809Y-92054819D01*
X229128809Y-92054819D02*
X228938333Y-92054819D01*
X228938333Y-92054819D02*
X228843095Y-92007200D01*
X228843095Y-92007200D02*
X228795476Y-91911961D01*
X228795476Y-91911961D02*
X228795476Y-91531009D01*
X228795476Y-91531009D02*
X228843095Y-91435771D01*
X228843095Y-91435771D02*
X228938333Y-91388152D01*
X228938333Y-91388152D02*
X229128809Y-91388152D01*
X229128809Y-91388152D02*
X229224047Y-91435771D01*
X229224047Y-91435771D02*
X229271666Y-91531009D01*
X229271666Y-91531009D02*
X229271666Y-91626247D01*
X229271666Y-91626247D02*
X228795476Y-91721485D01*
X230081190Y-92007200D02*
X229985952Y-92054819D01*
X229985952Y-92054819D02*
X229795476Y-92054819D01*
X229795476Y-92054819D02*
X229700238Y-92007200D01*
X229700238Y-92007200D02*
X229652619Y-91911961D01*
X229652619Y-91911961D02*
X229652619Y-91531009D01*
X229652619Y-91531009D02*
X229700238Y-91435771D01*
X229700238Y-91435771D02*
X229795476Y-91388152D01*
X229795476Y-91388152D02*
X229985952Y-91388152D01*
X229985952Y-91388152D02*
X230081190Y-91435771D01*
X230081190Y-91435771D02*
X230128809Y-91531009D01*
X230128809Y-91531009D02*
X230128809Y-91626247D01*
X230128809Y-91626247D02*
X229652619Y-91721485D01*
X230938333Y-92007200D02*
X230843095Y-92054819D01*
X230843095Y-92054819D02*
X230652619Y-92054819D01*
X230652619Y-92054819D02*
X230557381Y-92007200D01*
X230557381Y-92007200D02*
X230509762Y-91911961D01*
X230509762Y-91911961D02*
X230509762Y-91531009D01*
X230509762Y-91531009D02*
X230557381Y-91435771D01*
X230557381Y-91435771D02*
X230652619Y-91388152D01*
X230652619Y-91388152D02*
X230843095Y-91388152D01*
X230843095Y-91388152D02*
X230938333Y-91435771D01*
X230938333Y-91435771D02*
X230985952Y-91531009D01*
X230985952Y-91531009D02*
X230985952Y-91626247D01*
X230985952Y-91626247D02*
X230509762Y-91721485D01*
X231843095Y-92054819D02*
X231843095Y-91054819D01*
X231843095Y-92007200D02*
X231747857Y-92054819D01*
X231747857Y-92054819D02*
X231557381Y-92054819D01*
X231557381Y-92054819D02*
X231462143Y-92007200D01*
X231462143Y-92007200D02*
X231414524Y-91959580D01*
X231414524Y-91959580D02*
X231366905Y-91864342D01*
X231366905Y-91864342D02*
X231366905Y-91578628D01*
X231366905Y-91578628D02*
X231414524Y-91483390D01*
X231414524Y-91483390D02*
X231462143Y-91435771D01*
X231462143Y-91435771D02*
X231557381Y-91388152D01*
X231557381Y-91388152D02*
X231747857Y-91388152D01*
X231747857Y-91388152D02*
X231843095Y-91435771D01*
X233033572Y-92007200D02*
X233176429Y-92054819D01*
X233176429Y-92054819D02*
X233414524Y-92054819D01*
X233414524Y-92054819D02*
X233509762Y-92007200D01*
X233509762Y-92007200D02*
X233557381Y-91959580D01*
X233557381Y-91959580D02*
X233605000Y-91864342D01*
X233605000Y-91864342D02*
X233605000Y-91769104D01*
X233605000Y-91769104D02*
X233557381Y-91673866D01*
X233557381Y-91673866D02*
X233509762Y-91626247D01*
X233509762Y-91626247D02*
X233414524Y-91578628D01*
X233414524Y-91578628D02*
X233224048Y-91531009D01*
X233224048Y-91531009D02*
X233128810Y-91483390D01*
X233128810Y-91483390D02*
X233081191Y-91435771D01*
X233081191Y-91435771D02*
X233033572Y-91340533D01*
X233033572Y-91340533D02*
X233033572Y-91245295D01*
X233033572Y-91245295D02*
X233081191Y-91150057D01*
X233081191Y-91150057D02*
X233128810Y-91102438D01*
X233128810Y-91102438D02*
X233224048Y-91054819D01*
X233224048Y-91054819D02*
X233462143Y-91054819D01*
X233462143Y-91054819D02*
X233605000Y-91102438D01*
X233890715Y-91388152D02*
X234271667Y-91388152D01*
X234033572Y-91054819D02*
X234033572Y-91911961D01*
X234033572Y-91911961D02*
X234081191Y-92007200D01*
X234081191Y-92007200D02*
X234176429Y-92054819D01*
X234176429Y-92054819D02*
X234271667Y-92054819D01*
X235033572Y-91388152D02*
X235033572Y-92054819D01*
X234605001Y-91388152D02*
X234605001Y-91911961D01*
X234605001Y-91911961D02*
X234652620Y-92007200D01*
X234652620Y-92007200D02*
X234747858Y-92054819D01*
X234747858Y-92054819D02*
X234890715Y-92054819D01*
X234890715Y-92054819D02*
X234985953Y-92007200D01*
X234985953Y-92007200D02*
X235033572Y-91959580D01*
X235938334Y-92054819D02*
X235938334Y-91054819D01*
X235938334Y-92007200D02*
X235843096Y-92054819D01*
X235843096Y-92054819D02*
X235652620Y-92054819D01*
X235652620Y-92054819D02*
X235557382Y-92007200D01*
X235557382Y-92007200D02*
X235509763Y-91959580D01*
X235509763Y-91959580D02*
X235462144Y-91864342D01*
X235462144Y-91864342D02*
X235462144Y-91578628D01*
X235462144Y-91578628D02*
X235509763Y-91483390D01*
X235509763Y-91483390D02*
X235557382Y-91435771D01*
X235557382Y-91435771D02*
X235652620Y-91388152D01*
X235652620Y-91388152D02*
X235843096Y-91388152D01*
X235843096Y-91388152D02*
X235938334Y-91435771D01*
X236414525Y-92054819D02*
X236414525Y-91388152D01*
X236414525Y-91054819D02*
X236366906Y-91102438D01*
X236366906Y-91102438D02*
X236414525Y-91150057D01*
X236414525Y-91150057D02*
X236462144Y-91102438D01*
X236462144Y-91102438D02*
X236414525Y-91054819D01*
X236414525Y-91054819D02*
X236414525Y-91150057D01*
X237033572Y-92054819D02*
X236938334Y-92007200D01*
X236938334Y-92007200D02*
X236890715Y-91959580D01*
X236890715Y-91959580D02*
X236843096Y-91864342D01*
X236843096Y-91864342D02*
X236843096Y-91578628D01*
X236843096Y-91578628D02*
X236890715Y-91483390D01*
X236890715Y-91483390D02*
X236938334Y-91435771D01*
X236938334Y-91435771D02*
X237033572Y-91388152D01*
X237033572Y-91388152D02*
X237176429Y-91388152D01*
X237176429Y-91388152D02*
X237271667Y-91435771D01*
X237271667Y-91435771D02*
X237319286Y-91483390D01*
X237319286Y-91483390D02*
X237366905Y-91578628D01*
X237366905Y-91578628D02*
X237366905Y-91864342D01*
X237366905Y-91864342D02*
X237319286Y-91959580D01*
X237319286Y-91959580D02*
X237271667Y-92007200D01*
X237271667Y-92007200D02*
X237176429Y-92054819D01*
X237176429Y-92054819D02*
X237033572Y-92054819D01*
X231081191Y-93054818D02*
X231747857Y-94054818D01*
X231747857Y-93054818D02*
X231081191Y-94054818D01*
X232128810Y-94054818D02*
X232128810Y-93054818D01*
X232557381Y-93769103D02*
X233033571Y-93769103D01*
X232462143Y-94054818D02*
X232795476Y-93054818D01*
X232795476Y-93054818D02*
X233128809Y-94054818D01*
X233652619Y-93054818D02*
X233843095Y-93054818D01*
X233843095Y-93054818D02*
X233938333Y-93102437D01*
X233938333Y-93102437D02*
X234033571Y-93197675D01*
X234033571Y-93197675D02*
X234081190Y-93388151D01*
X234081190Y-93388151D02*
X234081190Y-93721484D01*
X234081190Y-93721484D02*
X234033571Y-93911960D01*
X234033571Y-93911960D02*
X233938333Y-94007199D01*
X233938333Y-94007199D02*
X233843095Y-94054818D01*
X233843095Y-94054818D02*
X233652619Y-94054818D01*
X233652619Y-94054818D02*
X233557381Y-94007199D01*
X233557381Y-94007199D02*
X233462143Y-93911960D01*
X233462143Y-93911960D02*
X233414524Y-93721484D01*
X233414524Y-93721484D02*
X233414524Y-93388151D01*
X233414524Y-93388151D02*
X233462143Y-93197675D01*
X233462143Y-93197675D02*
X233557381Y-93102437D01*
X233557381Y-93102437D02*
X233652619Y-93054818D01*
X226416666Y-119374819D02*
X226416666Y-120089104D01*
X226416666Y-120089104D02*
X226369047Y-120231961D01*
X226369047Y-120231961D02*
X226273809Y-120327200D01*
X226273809Y-120327200D02*
X226130952Y-120374819D01*
X226130952Y-120374819D02*
X226035714Y-120374819D01*
X226892857Y-120374819D02*
X226892857Y-119374819D01*
X226892857Y-119374819D02*
X227273809Y-119374819D01*
X227273809Y-119374819D02*
X227369047Y-119422438D01*
X227369047Y-119422438D02*
X227416666Y-119470057D01*
X227416666Y-119470057D02*
X227464285Y-119565295D01*
X227464285Y-119565295D02*
X227464285Y-119708152D01*
X227464285Y-119708152D02*
X227416666Y-119803390D01*
X227416666Y-119803390D02*
X227369047Y-119851009D01*
X227369047Y-119851009D02*
X227273809Y-119898628D01*
X227273809Y-119898628D02*
X226892857Y-119898628D01*
X227845238Y-119470057D02*
X227892857Y-119422438D01*
X227892857Y-119422438D02*
X227988095Y-119374819D01*
X227988095Y-119374819D02*
X228226190Y-119374819D01*
X228226190Y-119374819D02*
X228321428Y-119422438D01*
X228321428Y-119422438D02*
X228369047Y-119470057D01*
X228369047Y-119470057D02*
X228416666Y-119565295D01*
X228416666Y-119565295D02*
X228416666Y-119660533D01*
X228416666Y-119660533D02*
X228369047Y-119803390D01*
X228369047Y-119803390D02*
X227797619Y-120374819D01*
X227797619Y-120374819D02*
X228416666Y-120374819D01*
X226836666Y-110914819D02*
X226836666Y-111629104D01*
X226836666Y-111629104D02*
X226789047Y-111771961D01*
X226789047Y-111771961D02*
X226693809Y-111867200D01*
X226693809Y-111867200D02*
X226550952Y-111914819D01*
X226550952Y-111914819D02*
X226455714Y-111914819D01*
X227836666Y-111914819D02*
X227265238Y-111914819D01*
X227550952Y-111914819D02*
X227550952Y-110914819D01*
X227550952Y-110914819D02*
X227455714Y-111057676D01*
X227455714Y-111057676D02*
X227360476Y-111152914D01*
X227360476Y-111152914D02*
X227265238Y-111200533D01*
X252316666Y-81974819D02*
X252316666Y-82689104D01*
X252316666Y-82689104D02*
X252269047Y-82831961D01*
X252269047Y-82831961D02*
X252173809Y-82927200D01*
X252173809Y-82927200D02*
X252030952Y-82974819D01*
X252030952Y-82974819D02*
X251935714Y-82974819D01*
X252745238Y-82070057D02*
X252792857Y-82022438D01*
X252792857Y-82022438D02*
X252888095Y-81974819D01*
X252888095Y-81974819D02*
X253126190Y-81974819D01*
X253126190Y-81974819D02*
X253221428Y-82022438D01*
X253221428Y-82022438D02*
X253269047Y-82070057D01*
X253269047Y-82070057D02*
X253316666Y-82165295D01*
X253316666Y-82165295D02*
X253316666Y-82260533D01*
X253316666Y-82260533D02*
X253269047Y-82403390D01*
X253269047Y-82403390D02*
X252697619Y-82974819D01*
X252697619Y-82974819D02*
X253316666Y-82974819D01*
X193677142Y-88534819D02*
X193200952Y-88534819D01*
X193200952Y-88534819D02*
X193200952Y-87534819D01*
X193962857Y-88487200D02*
X194105714Y-88534819D01*
X194105714Y-88534819D02*
X194343809Y-88534819D01*
X194343809Y-88534819D02*
X194439047Y-88487200D01*
X194439047Y-88487200D02*
X194486666Y-88439580D01*
X194486666Y-88439580D02*
X194534285Y-88344342D01*
X194534285Y-88344342D02*
X194534285Y-88249104D01*
X194534285Y-88249104D02*
X194486666Y-88153866D01*
X194486666Y-88153866D02*
X194439047Y-88106247D01*
X194439047Y-88106247D02*
X194343809Y-88058628D01*
X194343809Y-88058628D02*
X194153333Y-88011009D01*
X194153333Y-88011009D02*
X194058095Y-87963390D01*
X194058095Y-87963390D02*
X194010476Y-87915771D01*
X194010476Y-87915771D02*
X193962857Y-87820533D01*
X193962857Y-87820533D02*
X193962857Y-87725295D01*
X193962857Y-87725295D02*
X194010476Y-87630057D01*
X194010476Y-87630057D02*
X194058095Y-87582438D01*
X194058095Y-87582438D02*
X194153333Y-87534819D01*
X194153333Y-87534819D02*
X194391428Y-87534819D01*
X194391428Y-87534819D02*
X194534285Y-87582438D01*
X195486666Y-88534819D02*
X194915238Y-88534819D01*
X195200952Y-88534819D02*
X195200952Y-87534819D01*
X195200952Y-87534819D02*
X195105714Y-87677676D01*
X195105714Y-87677676D02*
X195010476Y-87772914D01*
X195010476Y-87772914D02*
X194915238Y-87820533D01*
X235673333Y-109784819D02*
X235340000Y-109308628D01*
X235101905Y-109784819D02*
X235101905Y-108784819D01*
X235101905Y-108784819D02*
X235482857Y-108784819D01*
X235482857Y-108784819D02*
X235578095Y-108832438D01*
X235578095Y-108832438D02*
X235625714Y-108880057D01*
X235625714Y-108880057D02*
X235673333Y-108975295D01*
X235673333Y-108975295D02*
X235673333Y-109118152D01*
X235673333Y-109118152D02*
X235625714Y-109213390D01*
X235625714Y-109213390D02*
X235578095Y-109261009D01*
X235578095Y-109261009D02*
X235482857Y-109308628D01*
X235482857Y-109308628D02*
X235101905Y-109308628D01*
X236625714Y-109784819D02*
X236054286Y-109784819D01*
X236340000Y-109784819D02*
X236340000Y-108784819D01*
X236340000Y-108784819D02*
X236244762Y-108927676D01*
X236244762Y-108927676D02*
X236149524Y-109022914D01*
X236149524Y-109022914D02*
X236054286Y-109070533D01*
X210869167Y-95367200D02*
X211012024Y-95414819D01*
X211012024Y-95414819D02*
X211250119Y-95414819D01*
X211250119Y-95414819D02*
X211345357Y-95367200D01*
X211345357Y-95367200D02*
X211392976Y-95319580D01*
X211392976Y-95319580D02*
X211440595Y-95224342D01*
X211440595Y-95224342D02*
X211440595Y-95129104D01*
X211440595Y-95129104D02*
X211392976Y-95033866D01*
X211392976Y-95033866D02*
X211345357Y-94986247D01*
X211345357Y-94986247D02*
X211250119Y-94938628D01*
X211250119Y-94938628D02*
X211059643Y-94891009D01*
X211059643Y-94891009D02*
X210964405Y-94843390D01*
X210964405Y-94843390D02*
X210916786Y-94795771D01*
X210916786Y-94795771D02*
X210869167Y-94700533D01*
X210869167Y-94700533D02*
X210869167Y-94605295D01*
X210869167Y-94605295D02*
X210916786Y-94510057D01*
X210916786Y-94510057D02*
X210964405Y-94462438D01*
X210964405Y-94462438D02*
X211059643Y-94414819D01*
X211059643Y-94414819D02*
X211297738Y-94414819D01*
X211297738Y-94414819D02*
X211440595Y-94462438D01*
X211773929Y-94414819D02*
X212012024Y-95414819D01*
X212012024Y-95414819D02*
X212202500Y-94700533D01*
X212202500Y-94700533D02*
X212392976Y-95414819D01*
X212392976Y-95414819D02*
X212631072Y-94414819D01*
X212964405Y-94510057D02*
X213012024Y-94462438D01*
X213012024Y-94462438D02*
X213107262Y-94414819D01*
X213107262Y-94414819D02*
X213345357Y-94414819D01*
X213345357Y-94414819D02*
X213440595Y-94462438D01*
X213440595Y-94462438D02*
X213488214Y-94510057D01*
X213488214Y-94510057D02*
X213535833Y-94605295D01*
X213535833Y-94605295D02*
X213535833Y-94700533D01*
X213535833Y-94700533D02*
X213488214Y-94843390D01*
X213488214Y-94843390D02*
X212916786Y-95414819D01*
X212916786Y-95414819D02*
X213535833Y-95414819D01*
X215526667Y-82327200D02*
X215669524Y-82374819D01*
X215669524Y-82374819D02*
X215907619Y-82374819D01*
X215907619Y-82374819D02*
X216002857Y-82327200D01*
X216002857Y-82327200D02*
X216050476Y-82279580D01*
X216050476Y-82279580D02*
X216098095Y-82184342D01*
X216098095Y-82184342D02*
X216098095Y-82089104D01*
X216098095Y-82089104D02*
X216050476Y-81993866D01*
X216050476Y-81993866D02*
X216002857Y-81946247D01*
X216002857Y-81946247D02*
X215907619Y-81898628D01*
X215907619Y-81898628D02*
X215717143Y-81851009D01*
X215717143Y-81851009D02*
X215621905Y-81803390D01*
X215621905Y-81803390D02*
X215574286Y-81755771D01*
X215574286Y-81755771D02*
X215526667Y-81660533D01*
X215526667Y-81660533D02*
X215526667Y-81565295D01*
X215526667Y-81565295D02*
X215574286Y-81470057D01*
X215574286Y-81470057D02*
X215621905Y-81422438D01*
X215621905Y-81422438D02*
X215717143Y-81374819D01*
X215717143Y-81374819D02*
X215955238Y-81374819D01*
X215955238Y-81374819D02*
X216098095Y-81422438D01*
X216431429Y-81374819D02*
X216669524Y-82374819D01*
X216669524Y-82374819D02*
X216860000Y-81660533D01*
X216860000Y-81660533D02*
X217050476Y-82374819D01*
X217050476Y-82374819D02*
X217288572Y-81374819D01*
X218193333Y-82374819D02*
X217621905Y-82374819D01*
X217907619Y-82374819D02*
X217907619Y-81374819D01*
X217907619Y-81374819D02*
X217812381Y-81517676D01*
X217812381Y-81517676D02*
X217717143Y-81612914D01*
X217717143Y-81612914D02*
X217621905Y-81660533D01*
D12*
%TO.C,Q1*%
X249400000Y-103810000D02*
X245800000Y-103810000D01*
X246820000Y-108110000D02*
G75*
G02*
X245791555Y-103832316I780000J2450000D01*
G01*
X249411453Y-103817844D02*
G75*
G02*
X248420000Y-108110000I-1811453J-1842156D01*
G01*
%TO.C,RV2*%
X194420000Y-97515000D02*
X194420000Y-100235000D01*
X194420000Y-104735000D02*
X194420000Y-109105000D01*
X196240000Y-109105000D02*
X194420000Y-109105000D01*
X205360000Y-97515000D02*
X194420000Y-97515000D01*
X205360000Y-97515000D02*
X205360000Y-100235000D01*
X205360000Y-104735000D02*
X205360000Y-109105000D01*
X205360000Y-109105000D02*
X203540000Y-109105000D01*
%TO.C,RV1*%
X209360000Y-97385000D02*
X209360000Y-100105000D01*
X209360000Y-104605000D02*
X209360000Y-108975000D01*
X211180000Y-108975000D02*
X209360000Y-108975000D01*
X220300000Y-97385000D02*
X209360000Y-97385000D01*
X220300000Y-97385000D02*
X220300000Y-100105000D01*
X220300000Y-104605000D02*
X220300000Y-108975000D01*
X220300000Y-108975000D02*
X218480000Y-108975000D01*
%TO.C,JP1*%
X220290000Y-115990000D02*
X222290000Y-115990000D01*
X220290000Y-118790000D02*
X220290000Y-115990000D01*
X222290000Y-115990000D02*
X222290000Y-118790000D01*
X222290000Y-118790000D02*
X220290000Y-118790000D01*
D13*
%TO.C,U1*%
X223705000Y-84600000D02*
X223705000Y-101600000D01*
X225705000Y-103600000D02*
X239505000Y-103600000D01*
X228105000Y-81175970D02*
X237105000Y-81175970D01*
X228105000Y-88529270D02*
X228105000Y-81175970D01*
X237105000Y-81175970D02*
X237105000Y-88529270D01*
X237105000Y-88529270D02*
X228105000Y-88529270D01*
X239505000Y-82600910D02*
X225705000Y-82600910D01*
X241505000Y-101600000D02*
X241505000Y-84600000D01*
D12*
X223705000Y-84600000D02*
G75*
G02*
X225705000Y-82600000I2044612J-44612D01*
G01*
X225705000Y-103600000D02*
G75*
G02*
X223705000Y-101600000I44857J2044857D01*
G01*
X239505000Y-82600000D02*
G75*
G02*
X241505000Y-84600000I-44600J-2044600D01*
G01*
X241505000Y-101600000D02*
G75*
G02*
X239505000Y-103600000I-2000000J0D01*
G01*
D14*
X221732000Y-84300000D02*
G75*
G02*
X221478000Y-84300000I-127000J0D01*
G01*
X221478000Y-84300000D02*
G75*
G02*
X221732000Y-84300000I127000J0D01*
G01*
D15*
X223717285Y-84538295D02*
X223720333Y-84489527D01*
X223724396Y-84440506D01*
X223717285Y-84538295D01*
X241492713Y-101670850D02*
X241489665Y-101719618D01*
X241485601Y-101768639D01*
X241480268Y-101817407D01*
X241473664Y-101866175D01*
X241466044Y-101914690D01*
X241457152Y-101962950D01*
X241447248Y-102010955D01*
X241494492Y-101621574D01*
X241492713Y-101670850D01*
D12*
%TO.C,JP2*%
X226180000Y-116000000D02*
X228180000Y-116000000D01*
X226180000Y-118800000D02*
X226180000Y-116000000D01*
X228180000Y-116000000D02*
X228180000Y-118800000D01*
X228180000Y-118800000D02*
X226180000Y-118800000D01*
%TO.C,J2*%
X242840000Y-85480000D02*
X244740000Y-85480000D01*
X242840000Y-99720000D02*
X242840000Y-85480000D01*
X244740000Y-81480000D02*
X250980000Y-81480000D01*
X244740000Y-85480000D02*
X244740000Y-81480000D01*
X250980000Y-81480000D02*
X250980000Y-85480000D01*
X250980000Y-85480000D02*
X251280000Y-85480000D01*
X251280000Y-85480000D02*
X251280000Y-99720000D01*
X251280000Y-99720000D02*
X242840000Y-99720000D01*
%TO.C,LS1*%
X203669999Y-94480000D02*
G75*
G02*
X200670000Y-94480000I-1499999J6400000D01*
G01*
X208400000Y-88080000D02*
G75*
G02*
X195940000Y-88080000I-6230000J0D01*
G01*
X195940000Y-88080000D02*
G75*
G02*
X208400000Y-88080000I6230000J0D01*
G01*
%TO.C,R1*%
X232570000Y-105590000D02*
X232570000Y-105920000D01*
X232570000Y-108330000D02*
X232570000Y-108000000D01*
X239110000Y-105590000D02*
X232570000Y-105590000D01*
X239110000Y-105920000D02*
X239110000Y-105590000D01*
X239110000Y-108000000D02*
X239110000Y-108330000D01*
X239110000Y-108330000D02*
X232570000Y-108330000D01*
%TO.C,SW2*%
X210270000Y-89580000D02*
X219090000Y-89580000D01*
X210270000Y-89890000D02*
X210270000Y-89580000D01*
X210270000Y-94100000D02*
X210270000Y-93790000D01*
X212180000Y-88880000D02*
X212680000Y-89380000D01*
X212680000Y-89380000D02*
X213180000Y-88880000D01*
X213180000Y-88880000D02*
X212180000Y-88880000D01*
X219090000Y-89580000D02*
X219090000Y-89890000D01*
X219090000Y-94100000D02*
X210270000Y-94100000D01*
X219090000Y-94100000D02*
X219090000Y-93790000D01*
%TO.C,SW1*%
X210460000Y-82650000D02*
X219280000Y-82650000D01*
X210460000Y-82960000D02*
X210460000Y-82650000D01*
X210460000Y-87170000D02*
X210460000Y-86860000D01*
X212370000Y-81950000D02*
X212870000Y-82450000D01*
X212870000Y-82450000D02*
X213370000Y-81950000D01*
X213370000Y-81950000D02*
X212370000Y-81950000D01*
X219280000Y-82650000D02*
X219280000Y-82960000D01*
X219280000Y-87170000D02*
X210460000Y-87170000D01*
X219280000Y-87170000D02*
X219280000Y-86860000D01*
%TD*%
M02*
