%TF.GenerationSoftware,KiCad,Pcbnew,8.0.5*%
%TF.CreationDate,2025-07-03T02:13:12-07:00*%
%TF.ProjectId,Penguin_Paddle,50656e67-7569-46e5-9f50-6164646c652e, 4*%
%TF.SameCoordinates,Original*%
%TF.FileFunction,Drillmap*%
%TF.FilePolarity,Positive*%
%FSLAX45Y45*%
G04 Gerber Fmt 4.5, Leading zero omitted, Abs format (unit mm)*
G04 Created by KiCad (PCBNEW 8.0.5) date 2025-07-03 02:13:12*
%MOMM*%
%LPD*%
G01*
G04 APERTURE LIST*
%ADD10C,0.050000*%
%ADD11C,0.100000*%
%ADD12C,0.200000*%
%ADD13C,0.150000*%
G04 APERTURE END LIST*
D10*
X19213000Y-8236000D02*
X19212000Y-11661000D01*
X25484000Y-8086000D02*
G75*
G02*
X25634000Y-8236000I0J-150000D01*
G01*
X19363000Y-8086000D02*
X25484000Y-8086000D01*
X19213000Y-8236000D02*
G75*
G02*
X19363000Y-8086000I150000J0D01*
G01*
X19363000Y-14977000D02*
G75*
G02*
X19213000Y-14827000I0J150000D01*
G01*
X25484000Y-14977000D02*
X19363000Y-14977000D01*
X19212000Y-11961000D02*
X19213000Y-14827000D01*
X19110000Y-14261000D02*
X19112000Y-11961000D01*
X16316000Y-10285000D02*
X16315000Y-14261000D01*
X19112000Y-10285000D02*
X16316000Y-10285000D01*
X25634000Y-8236000D02*
X25634000Y-14827000D01*
X25634000Y-14827000D02*
G75*
G02*
X25484000Y-14977000I-150000J0D01*
G01*
X19112000Y-11661000D02*
X19112000Y-10285000D01*
X16315000Y-14261000D02*
X19110000Y-14261000D01*
D11*
X19112000Y-11961000D02*
G75*
G02*
X19212000Y-11961000I50000J0D01*
G01*
X19212000Y-11661000D02*
G75*
G02*
X19112000Y-11661000I-50000J0D01*
G01*
D12*
D11*
X17564000Y-10479000D02*
X17614000Y-10529000D01*
X17614000Y-10479000D02*
X17564000Y-10529000D01*
X17813000Y-10481000D02*
X17863000Y-10531000D01*
X17863000Y-10481000D02*
X17813000Y-10531000D01*
X22171000Y-11348000D02*
G75*
G02*
X22111000Y-11348000I-30000J0D01*
G01*
X22111000Y-11348000D02*
G75*
G02*
X22171000Y-11348000I30000J0D01*
G01*
X22747000Y-11346000D02*
G75*
G02*
X22687000Y-11346000I-30000J0D01*
G01*
X22687000Y-11346000D02*
G75*
G02*
X22747000Y-11346000I30000J0D01*
G01*
X24633000Y-10528500D02*
X24633000Y-10603500D01*
X24595500Y-10566000D02*
X24670500Y-10566000D01*
X24760000Y-10655500D02*
X24760000Y-10730500D01*
X24722500Y-10693000D02*
X24797500Y-10693000D01*
X24887000Y-10528500D02*
X24887000Y-10603500D01*
X24849500Y-10566000D02*
X24924500Y-10566000D01*
X21296285Y-9212285D02*
X21296285Y-9155716D01*
X21239716Y-9155716D01*
X21239716Y-9212285D01*
X21296285Y-9212285D01*
X21315285Y-8519285D02*
X21315285Y-8462716D01*
X21258716Y-8462716D01*
X21258716Y-8519285D01*
X21315285Y-8519285D01*
X21496285Y-9212285D02*
X21496285Y-9155716D01*
X21439716Y-9155716D01*
X21439716Y-9212285D01*
X21496285Y-9212285D01*
X21515285Y-8519285D02*
X21515285Y-8462716D01*
X21458716Y-8462716D01*
X21458716Y-8519285D01*
X21515285Y-8519285D01*
X21696285Y-9212285D02*
X21696285Y-9155716D01*
X21639716Y-9155716D01*
X21639716Y-9212285D01*
X21696285Y-9212285D01*
X21715285Y-8519285D02*
X21715285Y-8462716D01*
X21658716Y-8462716D01*
X21658716Y-8519285D01*
X21715285Y-8519285D01*
X23231284Y-10724285D02*
X23231284Y-10667716D01*
X23174715Y-10667716D01*
X23174715Y-10724285D01*
X23231284Y-10724285D01*
X23993284Y-10724285D02*
X23993284Y-10667716D01*
X23936715Y-10667716D01*
X23936715Y-10724285D01*
X23993284Y-10724285D01*
X19739000Y-11048500D02*
X19789000Y-10998500D01*
X19739000Y-10948500D01*
X19689000Y-10998500D01*
X19739000Y-11048500D01*
X19989000Y-11048500D02*
X20039000Y-10998500D01*
X19989000Y-10948500D01*
X19939000Y-10998500D01*
X19989000Y-11048500D01*
X20217000Y-8608000D02*
X20267000Y-8558000D01*
X20217000Y-8508000D01*
X20167000Y-8558000D01*
X20217000Y-8608000D01*
X20217000Y-9108000D02*
X20267000Y-9058000D01*
X20217000Y-9008000D01*
X20167000Y-9058000D01*
X20217000Y-9108000D01*
X20239000Y-11048500D02*
X20289000Y-10998500D01*
X20239000Y-10948500D01*
X20189000Y-10998500D01*
X20239000Y-11048500D01*
X21233000Y-11035500D02*
X21283000Y-10985500D01*
X21233000Y-10935500D01*
X21183000Y-10985500D01*
X21233000Y-11035500D01*
X21483000Y-11035500D02*
X21533000Y-10985500D01*
X21483000Y-10935500D01*
X21433000Y-10985500D01*
X21483000Y-11035500D01*
X21733000Y-11035500D02*
X21783000Y-10985500D01*
X21733000Y-10935500D01*
X21683000Y-10985500D01*
X21733000Y-11035500D01*
X22498000Y-8598000D02*
X22548000Y-8548000D01*
X22498000Y-8498000D01*
X22448000Y-8548000D01*
X22498000Y-8598000D01*
X22498000Y-8852000D02*
X22548000Y-8802000D01*
X22498000Y-8752000D01*
X22448000Y-8802000D01*
X22498000Y-8852000D01*
X22498000Y-9106000D02*
X22548000Y-9056000D01*
X22498000Y-9006000D01*
X22448000Y-9056000D01*
X22498000Y-9106000D01*
X22498000Y-9360000D02*
X22548000Y-9310000D01*
X22498000Y-9260000D01*
X22448000Y-9310000D01*
X22498000Y-9360000D01*
X22498000Y-9614000D02*
X22548000Y-9564000D01*
X22498000Y-9514000D01*
X22448000Y-9564000D01*
X22498000Y-9614000D01*
X22498000Y-9868000D02*
X22548000Y-9818000D01*
X22498000Y-9768000D01*
X22448000Y-9818000D01*
X22498000Y-9868000D01*
X22498000Y-10122000D02*
X22548000Y-10072000D01*
X22498000Y-10022000D01*
X22448000Y-10072000D01*
X22498000Y-10122000D01*
X24023000Y-8598000D02*
X24073000Y-8548000D01*
X24023000Y-8498000D01*
X23973000Y-8548000D01*
X24023000Y-8598000D01*
X24023000Y-8852000D02*
X24073000Y-8802000D01*
X24023000Y-8752000D01*
X23973000Y-8802000D01*
X24023000Y-8852000D01*
X24023000Y-9106000D02*
X24073000Y-9056000D01*
X24023000Y-9006000D01*
X23973000Y-9056000D01*
X24023000Y-9106000D01*
X24023000Y-9360000D02*
X24073000Y-9310000D01*
X24023000Y-9260000D01*
X23973000Y-9310000D01*
X24023000Y-9360000D01*
X24023000Y-9614000D02*
X24073000Y-9564000D01*
X24023000Y-9514000D01*
X23973000Y-9564000D01*
X24023000Y-9614000D01*
X24023000Y-9868000D02*
X24073000Y-9818000D01*
X24023000Y-9768000D01*
X23973000Y-9818000D01*
X24023000Y-9868000D01*
X24023000Y-10122000D02*
X24073000Y-10072000D01*
X24023000Y-10022000D01*
X23973000Y-10072000D01*
X24023000Y-10122000D01*
X24696000Y-8730000D02*
X24746000Y-8680000D01*
X24696000Y-8630000D01*
X24646000Y-8680000D01*
X24696000Y-8730000D01*
X24646000Y-8730000D02*
X24746000Y-8730000D01*
X24746000Y-8630000D02*
G75*
G02*
X24746000Y-8730000I0J-50000D01*
G01*
X24746000Y-8630000D02*
X24646000Y-8630000D01*
X24646000Y-8630000D02*
G75*
G03*
X24646000Y-8730000I0J-50000D01*
G01*
X24896000Y-8970000D02*
X24946000Y-8920000D01*
X24896000Y-8870000D01*
X24846000Y-8920000D01*
X24896000Y-8970000D01*
X24846000Y-8970000D02*
X24946000Y-8970000D01*
X24946000Y-8870000D02*
G75*
G02*
X24946000Y-8970000I0J-50000D01*
G01*
X24946000Y-8870000D02*
X24846000Y-8870000D01*
X24846000Y-8870000D02*
G75*
G03*
X24846000Y-8970000I0J-50000D01*
G01*
X24896000Y-9520000D02*
X24946000Y-9470000D01*
X24896000Y-9420000D01*
X24846000Y-9470000D01*
X24896000Y-9520000D01*
X24846000Y-9520000D02*
X24946000Y-9520000D01*
X24946000Y-9420000D02*
G75*
G02*
X24946000Y-9520000I0J-50000D01*
G01*
X24946000Y-9420000D02*
X24846000Y-9420000D01*
X24846000Y-9420000D02*
G75*
G03*
X24846000Y-9520000I0J-50000D01*
G01*
D13*
X20983000Y-9109000D02*
X21133000Y-9259000D01*
X21133000Y-9109000D02*
X20983000Y-9259000D01*
X21133000Y-9184000D02*
G75*
G02*
X20983000Y-9184000I-75000J0D01*
G01*
X20983000Y-9184000D02*
G75*
G02*
X21133000Y-9184000I75000J0D01*
G01*
X21002000Y-8416000D02*
X21152000Y-8566000D01*
X21152000Y-8416000D02*
X21002000Y-8566000D01*
X21152000Y-8491000D02*
G75*
G02*
X21002000Y-8491000I-75000J0D01*
G01*
X21002000Y-8491000D02*
G75*
G02*
X21152000Y-8491000I75000J0D01*
G01*
X21803000Y-9109000D02*
X21953000Y-9259000D01*
X21953000Y-9109000D02*
X21803000Y-9259000D01*
X21953000Y-9184000D02*
G75*
G02*
X21803000Y-9184000I-75000J0D01*
G01*
X21803000Y-9184000D02*
G75*
G02*
X21953000Y-9184000I75000J0D01*
G01*
X21822000Y-8416000D02*
X21972000Y-8566000D01*
X21972000Y-8416000D02*
X21822000Y-8566000D01*
X21972000Y-8491000D02*
G75*
G02*
X21822000Y-8491000I-75000J0D01*
G01*
X21822000Y-8491000D02*
G75*
G02*
X21972000Y-8491000I75000J0D01*
G01*
D12*
X19414000Y-10148500D02*
X19614000Y-10348500D01*
X19614000Y-10148500D02*
X19414000Y-10348500D01*
X19514000Y-10148500D02*
X19514000Y-10348500D01*
X19414000Y-10248500D02*
X19614000Y-10248500D01*
X20364000Y-10148500D02*
X20564000Y-10348500D01*
X20564000Y-10148500D02*
X20364000Y-10348500D01*
X20464000Y-10148500D02*
X20464000Y-10348500D01*
X20364000Y-10248500D02*
X20564000Y-10248500D01*
X20908000Y-10135500D02*
X21108000Y-10335500D01*
X21108000Y-10135500D02*
X20908000Y-10335500D01*
X21008000Y-10135500D02*
X21008000Y-10335500D01*
X20908000Y-10235500D02*
X21108000Y-10235500D01*
X21858000Y-10135500D02*
X22058000Y-10335500D01*
X22058000Y-10135500D02*
X21858000Y-10335500D01*
X21958000Y-10135500D02*
X21958000Y-10335500D01*
X21858000Y-10235500D02*
X22058000Y-10235500D01*
X16573277Y-15290984D02*
X16573277Y-15090984D01*
X16573277Y-15090984D02*
X16620896Y-15090984D01*
X16620896Y-15090984D02*
X16649467Y-15100508D01*
X16649467Y-15100508D02*
X16668515Y-15119555D01*
X16668515Y-15119555D02*
X16678039Y-15138603D01*
X16678039Y-15138603D02*
X16687562Y-15176698D01*
X16687562Y-15176698D02*
X16687562Y-15205269D01*
X16687562Y-15205269D02*
X16678039Y-15243365D01*
X16678039Y-15243365D02*
X16668515Y-15262412D01*
X16668515Y-15262412D02*
X16649467Y-15281460D01*
X16649467Y-15281460D02*
X16620896Y-15290984D01*
X16620896Y-15290984D02*
X16573277Y-15290984D01*
X16773277Y-15290984D02*
X16773277Y-15157650D01*
X16773277Y-15195746D02*
X16782801Y-15176698D01*
X16782801Y-15176698D02*
X16792324Y-15167174D01*
X16792324Y-15167174D02*
X16811372Y-15157650D01*
X16811372Y-15157650D02*
X16830420Y-15157650D01*
X16897086Y-15290984D02*
X16897086Y-15157650D01*
X16897086Y-15090984D02*
X16887563Y-15100508D01*
X16887563Y-15100508D02*
X16897086Y-15110031D01*
X16897086Y-15110031D02*
X16906610Y-15100508D01*
X16906610Y-15100508D02*
X16897086Y-15090984D01*
X16897086Y-15090984D02*
X16897086Y-15110031D01*
X17020896Y-15290984D02*
X17001848Y-15281460D01*
X17001848Y-15281460D02*
X16992324Y-15262412D01*
X16992324Y-15262412D02*
X16992324Y-15090984D01*
X17125658Y-15290984D02*
X17106610Y-15281460D01*
X17106610Y-15281460D02*
X17097086Y-15262412D01*
X17097086Y-15262412D02*
X17097086Y-15090984D01*
X17354229Y-15290984D02*
X17354229Y-15090984D01*
X17354229Y-15090984D02*
X17420896Y-15233841D01*
X17420896Y-15233841D02*
X17487563Y-15090984D01*
X17487563Y-15090984D02*
X17487563Y-15290984D01*
X17668515Y-15290984D02*
X17668515Y-15186222D01*
X17668515Y-15186222D02*
X17658991Y-15167174D01*
X17658991Y-15167174D02*
X17639944Y-15157650D01*
X17639944Y-15157650D02*
X17601848Y-15157650D01*
X17601848Y-15157650D02*
X17582801Y-15167174D01*
X17668515Y-15281460D02*
X17649467Y-15290984D01*
X17649467Y-15290984D02*
X17601848Y-15290984D01*
X17601848Y-15290984D02*
X17582801Y-15281460D01*
X17582801Y-15281460D02*
X17573277Y-15262412D01*
X17573277Y-15262412D02*
X17573277Y-15243365D01*
X17573277Y-15243365D02*
X17582801Y-15224317D01*
X17582801Y-15224317D02*
X17601848Y-15214793D01*
X17601848Y-15214793D02*
X17649467Y-15214793D01*
X17649467Y-15214793D02*
X17668515Y-15205269D01*
X17763753Y-15157650D02*
X17763753Y-15357650D01*
X17763753Y-15167174D02*
X17782801Y-15157650D01*
X17782801Y-15157650D02*
X17820896Y-15157650D01*
X17820896Y-15157650D02*
X17839944Y-15167174D01*
X17839944Y-15167174D02*
X17849467Y-15176698D01*
X17849467Y-15176698D02*
X17858991Y-15195746D01*
X17858991Y-15195746D02*
X17858991Y-15252888D01*
X17858991Y-15252888D02*
X17849467Y-15271936D01*
X17849467Y-15271936D02*
X17839944Y-15281460D01*
X17839944Y-15281460D02*
X17820896Y-15290984D01*
X17820896Y-15290984D02*
X17782801Y-15290984D01*
X17782801Y-15290984D02*
X17763753Y-15281460D01*
X17944705Y-15271936D02*
X17954229Y-15281460D01*
X17954229Y-15281460D02*
X17944705Y-15290984D01*
X17944705Y-15290984D02*
X17935182Y-15281460D01*
X17935182Y-15281460D02*
X17944705Y-15271936D01*
X17944705Y-15271936D02*
X17944705Y-15290984D01*
X17944705Y-15167174D02*
X17954229Y-15176698D01*
X17954229Y-15176698D02*
X17944705Y-15186222D01*
X17944705Y-15186222D02*
X17935182Y-15176698D01*
X17935182Y-15176698D02*
X17944705Y-15167174D01*
X17944705Y-15167174D02*
X17944705Y-15186222D01*
D11*
X16262500Y-15594500D02*
X16312500Y-15644500D01*
X16312500Y-15594500D02*
X16262500Y-15644500D01*
D12*
X16611372Y-15510984D02*
X16630420Y-15510984D01*
X16630420Y-15510984D02*
X16649467Y-15520508D01*
X16649467Y-15520508D02*
X16658991Y-15530031D01*
X16658991Y-15530031D02*
X16668515Y-15549079D01*
X16668515Y-15549079D02*
X16678039Y-15587174D01*
X16678039Y-15587174D02*
X16678039Y-15634793D01*
X16678039Y-15634793D02*
X16668515Y-15672888D01*
X16668515Y-15672888D02*
X16658991Y-15691936D01*
X16658991Y-15691936D02*
X16649467Y-15701460D01*
X16649467Y-15701460D02*
X16630420Y-15710984D01*
X16630420Y-15710984D02*
X16611372Y-15710984D01*
X16611372Y-15710984D02*
X16592324Y-15701460D01*
X16592324Y-15701460D02*
X16582801Y-15691936D01*
X16582801Y-15691936D02*
X16573277Y-15672888D01*
X16573277Y-15672888D02*
X16563753Y-15634793D01*
X16563753Y-15634793D02*
X16563753Y-15587174D01*
X16563753Y-15587174D02*
X16573277Y-15549079D01*
X16573277Y-15549079D02*
X16582801Y-15530031D01*
X16582801Y-15530031D02*
X16592324Y-15520508D01*
X16592324Y-15520508D02*
X16611372Y-15510984D01*
X16763753Y-15691936D02*
X16773277Y-15701460D01*
X16773277Y-15701460D02*
X16763753Y-15710984D01*
X16763753Y-15710984D02*
X16754229Y-15701460D01*
X16754229Y-15701460D02*
X16763753Y-15691936D01*
X16763753Y-15691936D02*
X16763753Y-15710984D01*
X16954229Y-15510984D02*
X16858991Y-15510984D01*
X16858991Y-15510984D02*
X16849467Y-15606222D01*
X16849467Y-15606222D02*
X16858991Y-15596698D01*
X16858991Y-15596698D02*
X16878039Y-15587174D01*
X16878039Y-15587174D02*
X16925658Y-15587174D01*
X16925658Y-15587174D02*
X16944705Y-15596698D01*
X16944705Y-15596698D02*
X16954229Y-15606222D01*
X16954229Y-15606222D02*
X16963753Y-15625269D01*
X16963753Y-15625269D02*
X16963753Y-15672888D01*
X16963753Y-15672888D02*
X16954229Y-15691936D01*
X16954229Y-15691936D02*
X16944705Y-15701460D01*
X16944705Y-15701460D02*
X16925658Y-15710984D01*
X16925658Y-15710984D02*
X16878039Y-15710984D01*
X16878039Y-15710984D02*
X16858991Y-15701460D01*
X16858991Y-15701460D02*
X16849467Y-15691936D01*
X17087563Y-15510984D02*
X17106610Y-15510984D01*
X17106610Y-15510984D02*
X17125658Y-15520508D01*
X17125658Y-15520508D02*
X17135182Y-15530031D01*
X17135182Y-15530031D02*
X17144705Y-15549079D01*
X17144705Y-15549079D02*
X17154229Y-15587174D01*
X17154229Y-15587174D02*
X17154229Y-15634793D01*
X17154229Y-15634793D02*
X17144705Y-15672888D01*
X17144705Y-15672888D02*
X17135182Y-15691936D01*
X17135182Y-15691936D02*
X17125658Y-15701460D01*
X17125658Y-15701460D02*
X17106610Y-15710984D01*
X17106610Y-15710984D02*
X17087563Y-15710984D01*
X17087563Y-15710984D02*
X17068515Y-15701460D01*
X17068515Y-15701460D02*
X17058991Y-15691936D01*
X17058991Y-15691936D02*
X17049467Y-15672888D01*
X17049467Y-15672888D02*
X17039944Y-15634793D01*
X17039944Y-15634793D02*
X17039944Y-15587174D01*
X17039944Y-15587174D02*
X17049467Y-15549079D01*
X17049467Y-15549079D02*
X17058991Y-15530031D01*
X17058991Y-15530031D02*
X17068515Y-15520508D01*
X17068515Y-15520508D02*
X17087563Y-15510984D01*
X17278039Y-15510984D02*
X17297086Y-15510984D01*
X17297086Y-15510984D02*
X17316134Y-15520508D01*
X17316134Y-15520508D02*
X17325658Y-15530031D01*
X17325658Y-15530031D02*
X17335182Y-15549079D01*
X17335182Y-15549079D02*
X17344705Y-15587174D01*
X17344705Y-15587174D02*
X17344705Y-15634793D01*
X17344705Y-15634793D02*
X17335182Y-15672888D01*
X17335182Y-15672888D02*
X17325658Y-15691936D01*
X17325658Y-15691936D02*
X17316134Y-15701460D01*
X17316134Y-15701460D02*
X17297086Y-15710984D01*
X17297086Y-15710984D02*
X17278039Y-15710984D01*
X17278039Y-15710984D02*
X17258991Y-15701460D01*
X17258991Y-15701460D02*
X17249467Y-15691936D01*
X17249467Y-15691936D02*
X17239944Y-15672888D01*
X17239944Y-15672888D02*
X17230420Y-15634793D01*
X17230420Y-15634793D02*
X17230420Y-15587174D01*
X17230420Y-15587174D02*
X17239944Y-15549079D01*
X17239944Y-15549079D02*
X17249467Y-15530031D01*
X17249467Y-15530031D02*
X17258991Y-15520508D01*
X17258991Y-15520508D02*
X17278039Y-15510984D01*
X17430420Y-15710984D02*
X17430420Y-15577650D01*
X17430420Y-15596698D02*
X17439944Y-15587174D01*
X17439944Y-15587174D02*
X17458991Y-15577650D01*
X17458991Y-15577650D02*
X17487563Y-15577650D01*
X17487563Y-15577650D02*
X17506610Y-15587174D01*
X17506610Y-15587174D02*
X17516134Y-15606222D01*
X17516134Y-15606222D02*
X17516134Y-15710984D01*
X17516134Y-15606222D02*
X17525658Y-15587174D01*
X17525658Y-15587174D02*
X17544705Y-15577650D01*
X17544705Y-15577650D02*
X17573277Y-15577650D01*
X17573277Y-15577650D02*
X17592325Y-15587174D01*
X17592325Y-15587174D02*
X17601848Y-15606222D01*
X17601848Y-15606222D02*
X17601848Y-15710984D01*
X17697086Y-15710984D02*
X17697086Y-15577650D01*
X17697086Y-15596698D02*
X17706610Y-15587174D01*
X17706610Y-15587174D02*
X17725658Y-15577650D01*
X17725658Y-15577650D02*
X17754229Y-15577650D01*
X17754229Y-15577650D02*
X17773277Y-15587174D01*
X17773277Y-15587174D02*
X17782801Y-15606222D01*
X17782801Y-15606222D02*
X17782801Y-15710984D01*
X17782801Y-15606222D02*
X17792325Y-15587174D01*
X17792325Y-15587174D02*
X17811372Y-15577650D01*
X17811372Y-15577650D02*
X17839944Y-15577650D01*
X17839944Y-15577650D02*
X17858991Y-15587174D01*
X17858991Y-15587174D02*
X17868515Y-15606222D01*
X17868515Y-15606222D02*
X17868515Y-15710984D01*
X18258991Y-15501460D02*
X18087563Y-15758603D01*
X18516134Y-15510984D02*
X18535182Y-15510984D01*
X18535182Y-15510984D02*
X18554229Y-15520508D01*
X18554229Y-15520508D02*
X18563753Y-15530031D01*
X18563753Y-15530031D02*
X18573277Y-15549079D01*
X18573277Y-15549079D02*
X18582801Y-15587174D01*
X18582801Y-15587174D02*
X18582801Y-15634793D01*
X18582801Y-15634793D02*
X18573277Y-15672888D01*
X18573277Y-15672888D02*
X18563753Y-15691936D01*
X18563753Y-15691936D02*
X18554229Y-15701460D01*
X18554229Y-15701460D02*
X18535182Y-15710984D01*
X18535182Y-15710984D02*
X18516134Y-15710984D01*
X18516134Y-15710984D02*
X18497087Y-15701460D01*
X18497087Y-15701460D02*
X18487563Y-15691936D01*
X18487563Y-15691936D02*
X18478039Y-15672888D01*
X18478039Y-15672888D02*
X18468515Y-15634793D01*
X18468515Y-15634793D02*
X18468515Y-15587174D01*
X18468515Y-15587174D02*
X18478039Y-15549079D01*
X18478039Y-15549079D02*
X18487563Y-15530031D01*
X18487563Y-15530031D02*
X18497087Y-15520508D01*
X18497087Y-15520508D02*
X18516134Y-15510984D01*
X18668515Y-15691936D02*
X18678039Y-15701460D01*
X18678039Y-15701460D02*
X18668515Y-15710984D01*
X18668515Y-15710984D02*
X18658991Y-15701460D01*
X18658991Y-15701460D02*
X18668515Y-15691936D01*
X18668515Y-15691936D02*
X18668515Y-15710984D01*
X18801848Y-15510984D02*
X18820896Y-15510984D01*
X18820896Y-15510984D02*
X18839944Y-15520508D01*
X18839944Y-15520508D02*
X18849468Y-15530031D01*
X18849468Y-15530031D02*
X18858991Y-15549079D01*
X18858991Y-15549079D02*
X18868515Y-15587174D01*
X18868515Y-15587174D02*
X18868515Y-15634793D01*
X18868515Y-15634793D02*
X18858991Y-15672888D01*
X18858991Y-15672888D02*
X18849468Y-15691936D01*
X18849468Y-15691936D02*
X18839944Y-15701460D01*
X18839944Y-15701460D02*
X18820896Y-15710984D01*
X18820896Y-15710984D02*
X18801848Y-15710984D01*
X18801848Y-15710984D02*
X18782801Y-15701460D01*
X18782801Y-15701460D02*
X18773277Y-15691936D01*
X18773277Y-15691936D02*
X18763753Y-15672888D01*
X18763753Y-15672888D02*
X18754229Y-15634793D01*
X18754229Y-15634793D02*
X18754229Y-15587174D01*
X18754229Y-15587174D02*
X18763753Y-15549079D01*
X18763753Y-15549079D02*
X18773277Y-15530031D01*
X18773277Y-15530031D02*
X18782801Y-15520508D01*
X18782801Y-15520508D02*
X18801848Y-15510984D01*
X19058991Y-15710984D02*
X18944706Y-15710984D01*
X19001848Y-15710984D02*
X19001848Y-15510984D01*
X19001848Y-15510984D02*
X18982801Y-15539555D01*
X18982801Y-15539555D02*
X18963753Y-15558603D01*
X18963753Y-15558603D02*
X18944706Y-15568127D01*
X19154229Y-15710984D02*
X19192325Y-15710984D01*
X19192325Y-15710984D02*
X19211372Y-15701460D01*
X19211372Y-15701460D02*
X19220896Y-15691936D01*
X19220896Y-15691936D02*
X19239944Y-15663365D01*
X19239944Y-15663365D02*
X19249468Y-15625269D01*
X19249468Y-15625269D02*
X19249468Y-15549079D01*
X19249468Y-15549079D02*
X19239944Y-15530031D01*
X19239944Y-15530031D02*
X19230420Y-15520508D01*
X19230420Y-15520508D02*
X19211372Y-15510984D01*
X19211372Y-15510984D02*
X19173277Y-15510984D01*
X19173277Y-15510984D02*
X19154229Y-15520508D01*
X19154229Y-15520508D02*
X19144706Y-15530031D01*
X19144706Y-15530031D02*
X19135182Y-15549079D01*
X19135182Y-15549079D02*
X19135182Y-15596698D01*
X19135182Y-15596698D02*
X19144706Y-15615746D01*
X19144706Y-15615746D02*
X19154229Y-15625269D01*
X19154229Y-15625269D02*
X19173277Y-15634793D01*
X19173277Y-15634793D02*
X19211372Y-15634793D01*
X19211372Y-15634793D02*
X19230420Y-15625269D01*
X19230420Y-15625269D02*
X19239944Y-15615746D01*
X19239944Y-15615746D02*
X19249468Y-15596698D01*
X19316134Y-15510984D02*
X19449468Y-15510984D01*
X19449468Y-15510984D02*
X19363753Y-15710984D01*
X19516134Y-15510984D02*
X19516134Y-15549079D01*
X19592325Y-15510984D02*
X19592325Y-15549079D01*
X19887563Y-15787174D02*
X19878039Y-15777650D01*
X19878039Y-15777650D02*
X19858991Y-15749079D01*
X19858991Y-15749079D02*
X19849468Y-15730031D01*
X19849468Y-15730031D02*
X19839944Y-15701460D01*
X19839944Y-15701460D02*
X19830420Y-15653841D01*
X19830420Y-15653841D02*
X19830420Y-15615746D01*
X19830420Y-15615746D02*
X19839944Y-15568127D01*
X19839944Y-15568127D02*
X19849468Y-15539555D01*
X19849468Y-15539555D02*
X19858991Y-15520508D01*
X19858991Y-15520508D02*
X19878039Y-15491936D01*
X19878039Y-15491936D02*
X19887563Y-15482412D01*
X19954230Y-15530031D02*
X19963753Y-15520508D01*
X19963753Y-15520508D02*
X19982801Y-15510984D01*
X19982801Y-15510984D02*
X20030420Y-15510984D01*
X20030420Y-15510984D02*
X20049468Y-15520508D01*
X20049468Y-15520508D02*
X20058991Y-15530031D01*
X20058991Y-15530031D02*
X20068515Y-15549079D01*
X20068515Y-15549079D02*
X20068515Y-15568127D01*
X20068515Y-15568127D02*
X20058991Y-15596698D01*
X20058991Y-15596698D02*
X19944706Y-15710984D01*
X19944706Y-15710984D02*
X20068515Y-15710984D01*
X20306611Y-15710984D02*
X20306611Y-15510984D01*
X20392325Y-15710984D02*
X20392325Y-15606222D01*
X20392325Y-15606222D02*
X20382801Y-15587174D01*
X20382801Y-15587174D02*
X20363753Y-15577650D01*
X20363753Y-15577650D02*
X20335182Y-15577650D01*
X20335182Y-15577650D02*
X20316134Y-15587174D01*
X20316134Y-15587174D02*
X20306611Y-15596698D01*
X20516134Y-15710984D02*
X20497087Y-15701460D01*
X20497087Y-15701460D02*
X20487563Y-15691936D01*
X20487563Y-15691936D02*
X20478039Y-15672888D01*
X20478039Y-15672888D02*
X20478039Y-15615746D01*
X20478039Y-15615746D02*
X20487563Y-15596698D01*
X20487563Y-15596698D02*
X20497087Y-15587174D01*
X20497087Y-15587174D02*
X20516134Y-15577650D01*
X20516134Y-15577650D02*
X20544706Y-15577650D01*
X20544706Y-15577650D02*
X20563753Y-15587174D01*
X20563753Y-15587174D02*
X20573277Y-15596698D01*
X20573277Y-15596698D02*
X20582801Y-15615746D01*
X20582801Y-15615746D02*
X20582801Y-15672888D01*
X20582801Y-15672888D02*
X20573277Y-15691936D01*
X20573277Y-15691936D02*
X20563753Y-15701460D01*
X20563753Y-15701460D02*
X20544706Y-15710984D01*
X20544706Y-15710984D02*
X20516134Y-15710984D01*
X20697087Y-15710984D02*
X20678039Y-15701460D01*
X20678039Y-15701460D02*
X20668515Y-15682412D01*
X20668515Y-15682412D02*
X20668515Y-15510984D01*
X20849468Y-15701460D02*
X20830420Y-15710984D01*
X20830420Y-15710984D02*
X20792325Y-15710984D01*
X20792325Y-15710984D02*
X20773277Y-15701460D01*
X20773277Y-15701460D02*
X20763753Y-15682412D01*
X20763753Y-15682412D02*
X20763753Y-15606222D01*
X20763753Y-15606222D02*
X20773277Y-15587174D01*
X20773277Y-15587174D02*
X20792325Y-15577650D01*
X20792325Y-15577650D02*
X20830420Y-15577650D01*
X20830420Y-15577650D02*
X20849468Y-15587174D01*
X20849468Y-15587174D02*
X20858992Y-15606222D01*
X20858992Y-15606222D02*
X20858992Y-15625269D01*
X20858992Y-15625269D02*
X20763753Y-15644317D01*
X20935182Y-15701460D02*
X20954230Y-15710984D01*
X20954230Y-15710984D02*
X20992325Y-15710984D01*
X20992325Y-15710984D02*
X21011373Y-15701460D01*
X21011373Y-15701460D02*
X21020896Y-15682412D01*
X21020896Y-15682412D02*
X21020896Y-15672888D01*
X21020896Y-15672888D02*
X21011373Y-15653841D01*
X21011373Y-15653841D02*
X20992325Y-15644317D01*
X20992325Y-15644317D02*
X20963753Y-15644317D01*
X20963753Y-15644317D02*
X20944706Y-15634793D01*
X20944706Y-15634793D02*
X20935182Y-15615746D01*
X20935182Y-15615746D02*
X20935182Y-15606222D01*
X20935182Y-15606222D02*
X20944706Y-15587174D01*
X20944706Y-15587174D02*
X20963753Y-15577650D01*
X20963753Y-15577650D02*
X20992325Y-15577650D01*
X20992325Y-15577650D02*
X21011373Y-15587174D01*
X21087563Y-15787174D02*
X21097087Y-15777650D01*
X21097087Y-15777650D02*
X21116134Y-15749079D01*
X21116134Y-15749079D02*
X21125658Y-15730031D01*
X21125658Y-15730031D02*
X21135182Y-15701460D01*
X21135182Y-15701460D02*
X21144706Y-15653841D01*
X21144706Y-15653841D02*
X21144706Y-15615746D01*
X21144706Y-15615746D02*
X21135182Y-15568127D01*
X21135182Y-15568127D02*
X21125658Y-15539555D01*
X21125658Y-15539555D02*
X21116134Y-15520508D01*
X21116134Y-15520508D02*
X21097087Y-15491936D01*
X21097087Y-15491936D02*
X21087563Y-15482412D01*
D11*
X16312500Y-15883500D02*
G75*
G02*
X16252500Y-15883500I-30000J0D01*
G01*
X16252500Y-15883500D02*
G75*
G02*
X16312500Y-15883500I30000J0D01*
G01*
D12*
X16611372Y-15774984D02*
X16630420Y-15774984D01*
X16630420Y-15774984D02*
X16649467Y-15784508D01*
X16649467Y-15784508D02*
X16658991Y-15794031D01*
X16658991Y-15794031D02*
X16668515Y-15813079D01*
X16668515Y-15813079D02*
X16678039Y-15851174D01*
X16678039Y-15851174D02*
X16678039Y-15898793D01*
X16678039Y-15898793D02*
X16668515Y-15936888D01*
X16668515Y-15936888D02*
X16658991Y-15955936D01*
X16658991Y-15955936D02*
X16649467Y-15965460D01*
X16649467Y-15965460D02*
X16630420Y-15974984D01*
X16630420Y-15974984D02*
X16611372Y-15974984D01*
X16611372Y-15974984D02*
X16592324Y-15965460D01*
X16592324Y-15965460D02*
X16582801Y-15955936D01*
X16582801Y-15955936D02*
X16573277Y-15936888D01*
X16573277Y-15936888D02*
X16563753Y-15898793D01*
X16563753Y-15898793D02*
X16563753Y-15851174D01*
X16563753Y-15851174D02*
X16573277Y-15813079D01*
X16573277Y-15813079D02*
X16582801Y-15794031D01*
X16582801Y-15794031D02*
X16592324Y-15784508D01*
X16592324Y-15784508D02*
X16611372Y-15774984D01*
X16763753Y-15955936D02*
X16773277Y-15965460D01*
X16773277Y-15965460D02*
X16763753Y-15974984D01*
X16763753Y-15974984D02*
X16754229Y-15965460D01*
X16754229Y-15965460D02*
X16763753Y-15955936D01*
X16763753Y-15955936D02*
X16763753Y-15974984D01*
X16944705Y-15774984D02*
X16906610Y-15774984D01*
X16906610Y-15774984D02*
X16887563Y-15784508D01*
X16887563Y-15784508D02*
X16878039Y-15794031D01*
X16878039Y-15794031D02*
X16858991Y-15822603D01*
X16858991Y-15822603D02*
X16849467Y-15860698D01*
X16849467Y-15860698D02*
X16849467Y-15936888D01*
X16849467Y-15936888D02*
X16858991Y-15955936D01*
X16858991Y-15955936D02*
X16868515Y-15965460D01*
X16868515Y-15965460D02*
X16887563Y-15974984D01*
X16887563Y-15974984D02*
X16925658Y-15974984D01*
X16925658Y-15974984D02*
X16944705Y-15965460D01*
X16944705Y-15965460D02*
X16954229Y-15955936D01*
X16954229Y-15955936D02*
X16963753Y-15936888D01*
X16963753Y-15936888D02*
X16963753Y-15889269D01*
X16963753Y-15889269D02*
X16954229Y-15870222D01*
X16954229Y-15870222D02*
X16944705Y-15860698D01*
X16944705Y-15860698D02*
X16925658Y-15851174D01*
X16925658Y-15851174D02*
X16887563Y-15851174D01*
X16887563Y-15851174D02*
X16868515Y-15860698D01*
X16868515Y-15860698D02*
X16858991Y-15870222D01*
X16858991Y-15870222D02*
X16849467Y-15889269D01*
X17087563Y-15774984D02*
X17106610Y-15774984D01*
X17106610Y-15774984D02*
X17125658Y-15784508D01*
X17125658Y-15784508D02*
X17135182Y-15794031D01*
X17135182Y-15794031D02*
X17144705Y-15813079D01*
X17144705Y-15813079D02*
X17154229Y-15851174D01*
X17154229Y-15851174D02*
X17154229Y-15898793D01*
X17154229Y-15898793D02*
X17144705Y-15936888D01*
X17144705Y-15936888D02*
X17135182Y-15955936D01*
X17135182Y-15955936D02*
X17125658Y-15965460D01*
X17125658Y-15965460D02*
X17106610Y-15974984D01*
X17106610Y-15974984D02*
X17087563Y-15974984D01*
X17087563Y-15974984D02*
X17068515Y-15965460D01*
X17068515Y-15965460D02*
X17058991Y-15955936D01*
X17058991Y-15955936D02*
X17049467Y-15936888D01*
X17049467Y-15936888D02*
X17039944Y-15898793D01*
X17039944Y-15898793D02*
X17039944Y-15851174D01*
X17039944Y-15851174D02*
X17049467Y-15813079D01*
X17049467Y-15813079D02*
X17058991Y-15794031D01*
X17058991Y-15794031D02*
X17068515Y-15784508D01*
X17068515Y-15784508D02*
X17087563Y-15774984D01*
X17278039Y-15774984D02*
X17297086Y-15774984D01*
X17297086Y-15774984D02*
X17316134Y-15784508D01*
X17316134Y-15784508D02*
X17325658Y-15794031D01*
X17325658Y-15794031D02*
X17335182Y-15813079D01*
X17335182Y-15813079D02*
X17344705Y-15851174D01*
X17344705Y-15851174D02*
X17344705Y-15898793D01*
X17344705Y-15898793D02*
X17335182Y-15936888D01*
X17335182Y-15936888D02*
X17325658Y-15955936D01*
X17325658Y-15955936D02*
X17316134Y-15965460D01*
X17316134Y-15965460D02*
X17297086Y-15974984D01*
X17297086Y-15974984D02*
X17278039Y-15974984D01*
X17278039Y-15974984D02*
X17258991Y-15965460D01*
X17258991Y-15965460D02*
X17249467Y-15955936D01*
X17249467Y-15955936D02*
X17239944Y-15936888D01*
X17239944Y-15936888D02*
X17230420Y-15898793D01*
X17230420Y-15898793D02*
X17230420Y-15851174D01*
X17230420Y-15851174D02*
X17239944Y-15813079D01*
X17239944Y-15813079D02*
X17249467Y-15794031D01*
X17249467Y-15794031D02*
X17258991Y-15784508D01*
X17258991Y-15784508D02*
X17278039Y-15774984D01*
X17430420Y-15974984D02*
X17430420Y-15841650D01*
X17430420Y-15860698D02*
X17439944Y-15851174D01*
X17439944Y-15851174D02*
X17458991Y-15841650D01*
X17458991Y-15841650D02*
X17487563Y-15841650D01*
X17487563Y-15841650D02*
X17506610Y-15851174D01*
X17506610Y-15851174D02*
X17516134Y-15870222D01*
X17516134Y-15870222D02*
X17516134Y-15974984D01*
X17516134Y-15870222D02*
X17525658Y-15851174D01*
X17525658Y-15851174D02*
X17544705Y-15841650D01*
X17544705Y-15841650D02*
X17573277Y-15841650D01*
X17573277Y-15841650D02*
X17592325Y-15851174D01*
X17592325Y-15851174D02*
X17601848Y-15870222D01*
X17601848Y-15870222D02*
X17601848Y-15974984D01*
X17697086Y-15974984D02*
X17697086Y-15841650D01*
X17697086Y-15860698D02*
X17706610Y-15851174D01*
X17706610Y-15851174D02*
X17725658Y-15841650D01*
X17725658Y-15841650D02*
X17754229Y-15841650D01*
X17754229Y-15841650D02*
X17773277Y-15851174D01*
X17773277Y-15851174D02*
X17782801Y-15870222D01*
X17782801Y-15870222D02*
X17782801Y-15974984D01*
X17782801Y-15870222D02*
X17792325Y-15851174D01*
X17792325Y-15851174D02*
X17811372Y-15841650D01*
X17811372Y-15841650D02*
X17839944Y-15841650D01*
X17839944Y-15841650D02*
X17858991Y-15851174D01*
X17858991Y-15851174D02*
X17868515Y-15870222D01*
X17868515Y-15870222D02*
X17868515Y-15974984D01*
X18258991Y-15765460D02*
X18087563Y-16022603D01*
X18516134Y-15774984D02*
X18535182Y-15774984D01*
X18535182Y-15774984D02*
X18554229Y-15784508D01*
X18554229Y-15784508D02*
X18563753Y-15794031D01*
X18563753Y-15794031D02*
X18573277Y-15813079D01*
X18573277Y-15813079D02*
X18582801Y-15851174D01*
X18582801Y-15851174D02*
X18582801Y-15898793D01*
X18582801Y-15898793D02*
X18573277Y-15936888D01*
X18573277Y-15936888D02*
X18563753Y-15955936D01*
X18563753Y-15955936D02*
X18554229Y-15965460D01*
X18554229Y-15965460D02*
X18535182Y-15974984D01*
X18535182Y-15974984D02*
X18516134Y-15974984D01*
X18516134Y-15974984D02*
X18497087Y-15965460D01*
X18497087Y-15965460D02*
X18487563Y-15955936D01*
X18487563Y-15955936D02*
X18478039Y-15936888D01*
X18478039Y-15936888D02*
X18468515Y-15898793D01*
X18468515Y-15898793D02*
X18468515Y-15851174D01*
X18468515Y-15851174D02*
X18478039Y-15813079D01*
X18478039Y-15813079D02*
X18487563Y-15794031D01*
X18487563Y-15794031D02*
X18497087Y-15784508D01*
X18497087Y-15784508D02*
X18516134Y-15774984D01*
X18668515Y-15955936D02*
X18678039Y-15965460D01*
X18678039Y-15965460D02*
X18668515Y-15974984D01*
X18668515Y-15974984D02*
X18658991Y-15965460D01*
X18658991Y-15965460D02*
X18668515Y-15955936D01*
X18668515Y-15955936D02*
X18668515Y-15974984D01*
X18801848Y-15774984D02*
X18820896Y-15774984D01*
X18820896Y-15774984D02*
X18839944Y-15784508D01*
X18839944Y-15784508D02*
X18849468Y-15794031D01*
X18849468Y-15794031D02*
X18858991Y-15813079D01*
X18858991Y-15813079D02*
X18868515Y-15851174D01*
X18868515Y-15851174D02*
X18868515Y-15898793D01*
X18868515Y-15898793D02*
X18858991Y-15936888D01*
X18858991Y-15936888D02*
X18849468Y-15955936D01*
X18849468Y-15955936D02*
X18839944Y-15965460D01*
X18839944Y-15965460D02*
X18820896Y-15974984D01*
X18820896Y-15974984D02*
X18801848Y-15974984D01*
X18801848Y-15974984D02*
X18782801Y-15965460D01*
X18782801Y-15965460D02*
X18773277Y-15955936D01*
X18773277Y-15955936D02*
X18763753Y-15936888D01*
X18763753Y-15936888D02*
X18754229Y-15898793D01*
X18754229Y-15898793D02*
X18754229Y-15851174D01*
X18754229Y-15851174D02*
X18763753Y-15813079D01*
X18763753Y-15813079D02*
X18773277Y-15794031D01*
X18773277Y-15794031D02*
X18782801Y-15784508D01*
X18782801Y-15784508D02*
X18801848Y-15774984D01*
X18944706Y-15794031D02*
X18954229Y-15784508D01*
X18954229Y-15784508D02*
X18973277Y-15774984D01*
X18973277Y-15774984D02*
X19020896Y-15774984D01*
X19020896Y-15774984D02*
X19039944Y-15784508D01*
X19039944Y-15784508D02*
X19049468Y-15794031D01*
X19049468Y-15794031D02*
X19058991Y-15813079D01*
X19058991Y-15813079D02*
X19058991Y-15832127D01*
X19058991Y-15832127D02*
X19049468Y-15860698D01*
X19049468Y-15860698D02*
X18935182Y-15974984D01*
X18935182Y-15974984D02*
X19058991Y-15974984D01*
X19125658Y-15774984D02*
X19249468Y-15774984D01*
X19249468Y-15774984D02*
X19182801Y-15851174D01*
X19182801Y-15851174D02*
X19211372Y-15851174D01*
X19211372Y-15851174D02*
X19230420Y-15860698D01*
X19230420Y-15860698D02*
X19239944Y-15870222D01*
X19239944Y-15870222D02*
X19249468Y-15889269D01*
X19249468Y-15889269D02*
X19249468Y-15936888D01*
X19249468Y-15936888D02*
X19239944Y-15955936D01*
X19239944Y-15955936D02*
X19230420Y-15965460D01*
X19230420Y-15965460D02*
X19211372Y-15974984D01*
X19211372Y-15974984D02*
X19154229Y-15974984D01*
X19154229Y-15974984D02*
X19135182Y-15965460D01*
X19135182Y-15965460D02*
X19125658Y-15955936D01*
X19420896Y-15774984D02*
X19382801Y-15774984D01*
X19382801Y-15774984D02*
X19363753Y-15784508D01*
X19363753Y-15784508D02*
X19354229Y-15794031D01*
X19354229Y-15794031D02*
X19335182Y-15822603D01*
X19335182Y-15822603D02*
X19325658Y-15860698D01*
X19325658Y-15860698D02*
X19325658Y-15936888D01*
X19325658Y-15936888D02*
X19335182Y-15955936D01*
X19335182Y-15955936D02*
X19344706Y-15965460D01*
X19344706Y-15965460D02*
X19363753Y-15974984D01*
X19363753Y-15974984D02*
X19401849Y-15974984D01*
X19401849Y-15974984D02*
X19420896Y-15965460D01*
X19420896Y-15965460D02*
X19430420Y-15955936D01*
X19430420Y-15955936D02*
X19439944Y-15936888D01*
X19439944Y-15936888D02*
X19439944Y-15889269D01*
X19439944Y-15889269D02*
X19430420Y-15870222D01*
X19430420Y-15870222D02*
X19420896Y-15860698D01*
X19420896Y-15860698D02*
X19401849Y-15851174D01*
X19401849Y-15851174D02*
X19363753Y-15851174D01*
X19363753Y-15851174D02*
X19344706Y-15860698D01*
X19344706Y-15860698D02*
X19335182Y-15870222D01*
X19335182Y-15870222D02*
X19325658Y-15889269D01*
X19516134Y-15774984D02*
X19516134Y-15813079D01*
X19592325Y-15774984D02*
X19592325Y-15813079D01*
X19887563Y-16051174D02*
X19878039Y-16041650D01*
X19878039Y-16041650D02*
X19858991Y-16013079D01*
X19858991Y-16013079D02*
X19849468Y-15994031D01*
X19849468Y-15994031D02*
X19839944Y-15965460D01*
X19839944Y-15965460D02*
X19830420Y-15917841D01*
X19830420Y-15917841D02*
X19830420Y-15879746D01*
X19830420Y-15879746D02*
X19839944Y-15832127D01*
X19839944Y-15832127D02*
X19849468Y-15803555D01*
X19849468Y-15803555D02*
X19858991Y-15784508D01*
X19858991Y-15784508D02*
X19878039Y-15755936D01*
X19878039Y-15755936D02*
X19887563Y-15746412D01*
X19954230Y-15794031D02*
X19963753Y-15784508D01*
X19963753Y-15784508D02*
X19982801Y-15774984D01*
X19982801Y-15774984D02*
X20030420Y-15774984D01*
X20030420Y-15774984D02*
X20049468Y-15784508D01*
X20049468Y-15784508D02*
X20058991Y-15794031D01*
X20058991Y-15794031D02*
X20068515Y-15813079D01*
X20068515Y-15813079D02*
X20068515Y-15832127D01*
X20068515Y-15832127D02*
X20058991Y-15860698D01*
X20058991Y-15860698D02*
X19944706Y-15974984D01*
X19944706Y-15974984D02*
X20068515Y-15974984D01*
X20306611Y-15974984D02*
X20306611Y-15774984D01*
X20392325Y-15974984D02*
X20392325Y-15870222D01*
X20392325Y-15870222D02*
X20382801Y-15851174D01*
X20382801Y-15851174D02*
X20363753Y-15841650D01*
X20363753Y-15841650D02*
X20335182Y-15841650D01*
X20335182Y-15841650D02*
X20316134Y-15851174D01*
X20316134Y-15851174D02*
X20306611Y-15860698D01*
X20516134Y-15974984D02*
X20497087Y-15965460D01*
X20497087Y-15965460D02*
X20487563Y-15955936D01*
X20487563Y-15955936D02*
X20478039Y-15936888D01*
X20478039Y-15936888D02*
X20478039Y-15879746D01*
X20478039Y-15879746D02*
X20487563Y-15860698D01*
X20487563Y-15860698D02*
X20497087Y-15851174D01*
X20497087Y-15851174D02*
X20516134Y-15841650D01*
X20516134Y-15841650D02*
X20544706Y-15841650D01*
X20544706Y-15841650D02*
X20563753Y-15851174D01*
X20563753Y-15851174D02*
X20573277Y-15860698D01*
X20573277Y-15860698D02*
X20582801Y-15879746D01*
X20582801Y-15879746D02*
X20582801Y-15936888D01*
X20582801Y-15936888D02*
X20573277Y-15955936D01*
X20573277Y-15955936D02*
X20563753Y-15965460D01*
X20563753Y-15965460D02*
X20544706Y-15974984D01*
X20544706Y-15974984D02*
X20516134Y-15974984D01*
X20697087Y-15974984D02*
X20678039Y-15965460D01*
X20678039Y-15965460D02*
X20668515Y-15946412D01*
X20668515Y-15946412D02*
X20668515Y-15774984D01*
X20849468Y-15965460D02*
X20830420Y-15974984D01*
X20830420Y-15974984D02*
X20792325Y-15974984D01*
X20792325Y-15974984D02*
X20773277Y-15965460D01*
X20773277Y-15965460D02*
X20763753Y-15946412D01*
X20763753Y-15946412D02*
X20763753Y-15870222D01*
X20763753Y-15870222D02*
X20773277Y-15851174D01*
X20773277Y-15851174D02*
X20792325Y-15841650D01*
X20792325Y-15841650D02*
X20830420Y-15841650D01*
X20830420Y-15841650D02*
X20849468Y-15851174D01*
X20849468Y-15851174D02*
X20858992Y-15870222D01*
X20858992Y-15870222D02*
X20858992Y-15889269D01*
X20858992Y-15889269D02*
X20763753Y-15908317D01*
X20935182Y-15965460D02*
X20954230Y-15974984D01*
X20954230Y-15974984D02*
X20992325Y-15974984D01*
X20992325Y-15974984D02*
X21011373Y-15965460D01*
X21011373Y-15965460D02*
X21020896Y-15946412D01*
X21020896Y-15946412D02*
X21020896Y-15936888D01*
X21020896Y-15936888D02*
X21011373Y-15917841D01*
X21011373Y-15917841D02*
X20992325Y-15908317D01*
X20992325Y-15908317D02*
X20963753Y-15908317D01*
X20963753Y-15908317D02*
X20944706Y-15898793D01*
X20944706Y-15898793D02*
X20935182Y-15879746D01*
X20935182Y-15879746D02*
X20935182Y-15870222D01*
X20935182Y-15870222D02*
X20944706Y-15851174D01*
X20944706Y-15851174D02*
X20963753Y-15841650D01*
X20963753Y-15841650D02*
X20992325Y-15841650D01*
X20992325Y-15841650D02*
X21011373Y-15851174D01*
X21087563Y-16051174D02*
X21097087Y-16041650D01*
X21097087Y-16041650D02*
X21116134Y-16013079D01*
X21116134Y-16013079D02*
X21125658Y-15994031D01*
X21125658Y-15994031D02*
X21135182Y-15965460D01*
X21135182Y-15965460D02*
X21144706Y-15917841D01*
X21144706Y-15917841D02*
X21144706Y-15879746D01*
X21144706Y-15879746D02*
X21135182Y-15832127D01*
X21135182Y-15832127D02*
X21125658Y-15803555D01*
X21125658Y-15803555D02*
X21116134Y-15784508D01*
X21116134Y-15784508D02*
X21097087Y-15755936D01*
X21097087Y-15755936D02*
X21087563Y-15746412D01*
D11*
X16275000Y-16110000D02*
X16275000Y-16185000D01*
X16237500Y-16147500D02*
X16312500Y-16147500D01*
D12*
X16611372Y-16038984D02*
X16630420Y-16038984D01*
X16630420Y-16038984D02*
X16649467Y-16048508D01*
X16649467Y-16048508D02*
X16658991Y-16058031D01*
X16658991Y-16058031D02*
X16668515Y-16077079D01*
X16668515Y-16077079D02*
X16678039Y-16115174D01*
X16678039Y-16115174D02*
X16678039Y-16162793D01*
X16678039Y-16162793D02*
X16668515Y-16200888D01*
X16668515Y-16200888D02*
X16658991Y-16219936D01*
X16658991Y-16219936D02*
X16649467Y-16229460D01*
X16649467Y-16229460D02*
X16630420Y-16238984D01*
X16630420Y-16238984D02*
X16611372Y-16238984D01*
X16611372Y-16238984D02*
X16592324Y-16229460D01*
X16592324Y-16229460D02*
X16582801Y-16219936D01*
X16582801Y-16219936D02*
X16573277Y-16200888D01*
X16573277Y-16200888D02*
X16563753Y-16162793D01*
X16563753Y-16162793D02*
X16563753Y-16115174D01*
X16563753Y-16115174D02*
X16573277Y-16077079D01*
X16573277Y-16077079D02*
X16582801Y-16058031D01*
X16582801Y-16058031D02*
X16592324Y-16048508D01*
X16592324Y-16048508D02*
X16611372Y-16038984D01*
X16763753Y-16219936D02*
X16773277Y-16229460D01*
X16773277Y-16229460D02*
X16763753Y-16238984D01*
X16763753Y-16238984D02*
X16754229Y-16229460D01*
X16754229Y-16229460D02*
X16763753Y-16219936D01*
X16763753Y-16219936D02*
X16763753Y-16238984D01*
X16839944Y-16038984D02*
X16973277Y-16038984D01*
X16973277Y-16038984D02*
X16887563Y-16238984D01*
X17144705Y-16038984D02*
X17049467Y-16038984D01*
X17049467Y-16038984D02*
X17039944Y-16134222D01*
X17039944Y-16134222D02*
X17049467Y-16124698D01*
X17049467Y-16124698D02*
X17068515Y-16115174D01*
X17068515Y-16115174D02*
X17116134Y-16115174D01*
X17116134Y-16115174D02*
X17135182Y-16124698D01*
X17135182Y-16124698D02*
X17144705Y-16134222D01*
X17144705Y-16134222D02*
X17154229Y-16153269D01*
X17154229Y-16153269D02*
X17154229Y-16200888D01*
X17154229Y-16200888D02*
X17144705Y-16219936D01*
X17144705Y-16219936D02*
X17135182Y-16229460D01*
X17135182Y-16229460D02*
X17116134Y-16238984D01*
X17116134Y-16238984D02*
X17068515Y-16238984D01*
X17068515Y-16238984D02*
X17049467Y-16229460D01*
X17049467Y-16229460D02*
X17039944Y-16219936D01*
X17278039Y-16038984D02*
X17297086Y-16038984D01*
X17297086Y-16038984D02*
X17316134Y-16048508D01*
X17316134Y-16048508D02*
X17325658Y-16058031D01*
X17325658Y-16058031D02*
X17335182Y-16077079D01*
X17335182Y-16077079D02*
X17344705Y-16115174D01*
X17344705Y-16115174D02*
X17344705Y-16162793D01*
X17344705Y-16162793D02*
X17335182Y-16200888D01*
X17335182Y-16200888D02*
X17325658Y-16219936D01*
X17325658Y-16219936D02*
X17316134Y-16229460D01*
X17316134Y-16229460D02*
X17297086Y-16238984D01*
X17297086Y-16238984D02*
X17278039Y-16238984D01*
X17278039Y-16238984D02*
X17258991Y-16229460D01*
X17258991Y-16229460D02*
X17249467Y-16219936D01*
X17249467Y-16219936D02*
X17239944Y-16200888D01*
X17239944Y-16200888D02*
X17230420Y-16162793D01*
X17230420Y-16162793D02*
X17230420Y-16115174D01*
X17230420Y-16115174D02*
X17239944Y-16077079D01*
X17239944Y-16077079D02*
X17249467Y-16058031D01*
X17249467Y-16058031D02*
X17258991Y-16048508D01*
X17258991Y-16048508D02*
X17278039Y-16038984D01*
X17430420Y-16238984D02*
X17430420Y-16105650D01*
X17430420Y-16124698D02*
X17439944Y-16115174D01*
X17439944Y-16115174D02*
X17458991Y-16105650D01*
X17458991Y-16105650D02*
X17487563Y-16105650D01*
X17487563Y-16105650D02*
X17506610Y-16115174D01*
X17506610Y-16115174D02*
X17516134Y-16134222D01*
X17516134Y-16134222D02*
X17516134Y-16238984D01*
X17516134Y-16134222D02*
X17525658Y-16115174D01*
X17525658Y-16115174D02*
X17544705Y-16105650D01*
X17544705Y-16105650D02*
X17573277Y-16105650D01*
X17573277Y-16105650D02*
X17592325Y-16115174D01*
X17592325Y-16115174D02*
X17601848Y-16134222D01*
X17601848Y-16134222D02*
X17601848Y-16238984D01*
X17697086Y-16238984D02*
X17697086Y-16105650D01*
X17697086Y-16124698D02*
X17706610Y-16115174D01*
X17706610Y-16115174D02*
X17725658Y-16105650D01*
X17725658Y-16105650D02*
X17754229Y-16105650D01*
X17754229Y-16105650D02*
X17773277Y-16115174D01*
X17773277Y-16115174D02*
X17782801Y-16134222D01*
X17782801Y-16134222D02*
X17782801Y-16238984D01*
X17782801Y-16134222D02*
X17792325Y-16115174D01*
X17792325Y-16115174D02*
X17811372Y-16105650D01*
X17811372Y-16105650D02*
X17839944Y-16105650D01*
X17839944Y-16105650D02*
X17858991Y-16115174D01*
X17858991Y-16115174D02*
X17868515Y-16134222D01*
X17868515Y-16134222D02*
X17868515Y-16238984D01*
X18258991Y-16029460D02*
X18087563Y-16286603D01*
X18516134Y-16038984D02*
X18535182Y-16038984D01*
X18535182Y-16038984D02*
X18554229Y-16048508D01*
X18554229Y-16048508D02*
X18563753Y-16058031D01*
X18563753Y-16058031D02*
X18573277Y-16077079D01*
X18573277Y-16077079D02*
X18582801Y-16115174D01*
X18582801Y-16115174D02*
X18582801Y-16162793D01*
X18582801Y-16162793D02*
X18573277Y-16200888D01*
X18573277Y-16200888D02*
X18563753Y-16219936D01*
X18563753Y-16219936D02*
X18554229Y-16229460D01*
X18554229Y-16229460D02*
X18535182Y-16238984D01*
X18535182Y-16238984D02*
X18516134Y-16238984D01*
X18516134Y-16238984D02*
X18497087Y-16229460D01*
X18497087Y-16229460D02*
X18487563Y-16219936D01*
X18487563Y-16219936D02*
X18478039Y-16200888D01*
X18478039Y-16200888D02*
X18468515Y-16162793D01*
X18468515Y-16162793D02*
X18468515Y-16115174D01*
X18468515Y-16115174D02*
X18478039Y-16077079D01*
X18478039Y-16077079D02*
X18487563Y-16058031D01*
X18487563Y-16058031D02*
X18497087Y-16048508D01*
X18497087Y-16048508D02*
X18516134Y-16038984D01*
X18668515Y-16219936D02*
X18678039Y-16229460D01*
X18678039Y-16229460D02*
X18668515Y-16238984D01*
X18668515Y-16238984D02*
X18658991Y-16229460D01*
X18658991Y-16229460D02*
X18668515Y-16219936D01*
X18668515Y-16219936D02*
X18668515Y-16238984D01*
X18801848Y-16038984D02*
X18820896Y-16038984D01*
X18820896Y-16038984D02*
X18839944Y-16048508D01*
X18839944Y-16048508D02*
X18849468Y-16058031D01*
X18849468Y-16058031D02*
X18858991Y-16077079D01*
X18858991Y-16077079D02*
X18868515Y-16115174D01*
X18868515Y-16115174D02*
X18868515Y-16162793D01*
X18868515Y-16162793D02*
X18858991Y-16200888D01*
X18858991Y-16200888D02*
X18849468Y-16219936D01*
X18849468Y-16219936D02*
X18839944Y-16229460D01*
X18839944Y-16229460D02*
X18820896Y-16238984D01*
X18820896Y-16238984D02*
X18801848Y-16238984D01*
X18801848Y-16238984D02*
X18782801Y-16229460D01*
X18782801Y-16229460D02*
X18773277Y-16219936D01*
X18773277Y-16219936D02*
X18763753Y-16200888D01*
X18763753Y-16200888D02*
X18754229Y-16162793D01*
X18754229Y-16162793D02*
X18754229Y-16115174D01*
X18754229Y-16115174D02*
X18763753Y-16077079D01*
X18763753Y-16077079D02*
X18773277Y-16058031D01*
X18773277Y-16058031D02*
X18782801Y-16048508D01*
X18782801Y-16048508D02*
X18801848Y-16038984D01*
X18944706Y-16058031D02*
X18954229Y-16048508D01*
X18954229Y-16048508D02*
X18973277Y-16038984D01*
X18973277Y-16038984D02*
X19020896Y-16038984D01*
X19020896Y-16038984D02*
X19039944Y-16048508D01*
X19039944Y-16048508D02*
X19049468Y-16058031D01*
X19049468Y-16058031D02*
X19058991Y-16077079D01*
X19058991Y-16077079D02*
X19058991Y-16096127D01*
X19058991Y-16096127D02*
X19049468Y-16124698D01*
X19049468Y-16124698D02*
X18935182Y-16238984D01*
X18935182Y-16238984D02*
X19058991Y-16238984D01*
X19154229Y-16238984D02*
X19192325Y-16238984D01*
X19192325Y-16238984D02*
X19211372Y-16229460D01*
X19211372Y-16229460D02*
X19220896Y-16219936D01*
X19220896Y-16219936D02*
X19239944Y-16191365D01*
X19239944Y-16191365D02*
X19249468Y-16153269D01*
X19249468Y-16153269D02*
X19249468Y-16077079D01*
X19249468Y-16077079D02*
X19239944Y-16058031D01*
X19239944Y-16058031D02*
X19230420Y-16048508D01*
X19230420Y-16048508D02*
X19211372Y-16038984D01*
X19211372Y-16038984D02*
X19173277Y-16038984D01*
X19173277Y-16038984D02*
X19154229Y-16048508D01*
X19154229Y-16048508D02*
X19144706Y-16058031D01*
X19144706Y-16058031D02*
X19135182Y-16077079D01*
X19135182Y-16077079D02*
X19135182Y-16124698D01*
X19135182Y-16124698D02*
X19144706Y-16143746D01*
X19144706Y-16143746D02*
X19154229Y-16153269D01*
X19154229Y-16153269D02*
X19173277Y-16162793D01*
X19173277Y-16162793D02*
X19211372Y-16162793D01*
X19211372Y-16162793D02*
X19230420Y-16153269D01*
X19230420Y-16153269D02*
X19239944Y-16143746D01*
X19239944Y-16143746D02*
X19249468Y-16124698D01*
X19430420Y-16038984D02*
X19335182Y-16038984D01*
X19335182Y-16038984D02*
X19325658Y-16134222D01*
X19325658Y-16134222D02*
X19335182Y-16124698D01*
X19335182Y-16124698D02*
X19354229Y-16115174D01*
X19354229Y-16115174D02*
X19401849Y-16115174D01*
X19401849Y-16115174D02*
X19420896Y-16124698D01*
X19420896Y-16124698D02*
X19430420Y-16134222D01*
X19430420Y-16134222D02*
X19439944Y-16153269D01*
X19439944Y-16153269D02*
X19439944Y-16200888D01*
X19439944Y-16200888D02*
X19430420Y-16219936D01*
X19430420Y-16219936D02*
X19420896Y-16229460D01*
X19420896Y-16229460D02*
X19401849Y-16238984D01*
X19401849Y-16238984D02*
X19354229Y-16238984D01*
X19354229Y-16238984D02*
X19335182Y-16229460D01*
X19335182Y-16229460D02*
X19325658Y-16219936D01*
X19516134Y-16038984D02*
X19516134Y-16077079D01*
X19592325Y-16038984D02*
X19592325Y-16077079D01*
X19887563Y-16315174D02*
X19878039Y-16305650D01*
X19878039Y-16305650D02*
X19858991Y-16277079D01*
X19858991Y-16277079D02*
X19849468Y-16258031D01*
X19849468Y-16258031D02*
X19839944Y-16229460D01*
X19839944Y-16229460D02*
X19830420Y-16181841D01*
X19830420Y-16181841D02*
X19830420Y-16143746D01*
X19830420Y-16143746D02*
X19839944Y-16096127D01*
X19839944Y-16096127D02*
X19849468Y-16067555D01*
X19849468Y-16067555D02*
X19858991Y-16048508D01*
X19858991Y-16048508D02*
X19878039Y-16019936D01*
X19878039Y-16019936D02*
X19887563Y-16010412D01*
X19944706Y-16038984D02*
X20068515Y-16038984D01*
X20068515Y-16038984D02*
X20001849Y-16115174D01*
X20001849Y-16115174D02*
X20030420Y-16115174D01*
X20030420Y-16115174D02*
X20049468Y-16124698D01*
X20049468Y-16124698D02*
X20058991Y-16134222D01*
X20058991Y-16134222D02*
X20068515Y-16153269D01*
X20068515Y-16153269D02*
X20068515Y-16200888D01*
X20068515Y-16200888D02*
X20058991Y-16219936D01*
X20058991Y-16219936D02*
X20049468Y-16229460D01*
X20049468Y-16229460D02*
X20030420Y-16238984D01*
X20030420Y-16238984D02*
X19973277Y-16238984D01*
X19973277Y-16238984D02*
X19954230Y-16229460D01*
X19954230Y-16229460D02*
X19944706Y-16219936D01*
X20306611Y-16238984D02*
X20306611Y-16038984D01*
X20392325Y-16238984D02*
X20392325Y-16134222D01*
X20392325Y-16134222D02*
X20382801Y-16115174D01*
X20382801Y-16115174D02*
X20363753Y-16105650D01*
X20363753Y-16105650D02*
X20335182Y-16105650D01*
X20335182Y-16105650D02*
X20316134Y-16115174D01*
X20316134Y-16115174D02*
X20306611Y-16124698D01*
X20516134Y-16238984D02*
X20497087Y-16229460D01*
X20497087Y-16229460D02*
X20487563Y-16219936D01*
X20487563Y-16219936D02*
X20478039Y-16200888D01*
X20478039Y-16200888D02*
X20478039Y-16143746D01*
X20478039Y-16143746D02*
X20487563Y-16124698D01*
X20487563Y-16124698D02*
X20497087Y-16115174D01*
X20497087Y-16115174D02*
X20516134Y-16105650D01*
X20516134Y-16105650D02*
X20544706Y-16105650D01*
X20544706Y-16105650D02*
X20563753Y-16115174D01*
X20563753Y-16115174D02*
X20573277Y-16124698D01*
X20573277Y-16124698D02*
X20582801Y-16143746D01*
X20582801Y-16143746D02*
X20582801Y-16200888D01*
X20582801Y-16200888D02*
X20573277Y-16219936D01*
X20573277Y-16219936D02*
X20563753Y-16229460D01*
X20563753Y-16229460D02*
X20544706Y-16238984D01*
X20544706Y-16238984D02*
X20516134Y-16238984D01*
X20697087Y-16238984D02*
X20678039Y-16229460D01*
X20678039Y-16229460D02*
X20668515Y-16210412D01*
X20668515Y-16210412D02*
X20668515Y-16038984D01*
X20849468Y-16229460D02*
X20830420Y-16238984D01*
X20830420Y-16238984D02*
X20792325Y-16238984D01*
X20792325Y-16238984D02*
X20773277Y-16229460D01*
X20773277Y-16229460D02*
X20763753Y-16210412D01*
X20763753Y-16210412D02*
X20763753Y-16134222D01*
X20763753Y-16134222D02*
X20773277Y-16115174D01*
X20773277Y-16115174D02*
X20792325Y-16105650D01*
X20792325Y-16105650D02*
X20830420Y-16105650D01*
X20830420Y-16105650D02*
X20849468Y-16115174D01*
X20849468Y-16115174D02*
X20858992Y-16134222D01*
X20858992Y-16134222D02*
X20858992Y-16153269D01*
X20858992Y-16153269D02*
X20763753Y-16172317D01*
X20935182Y-16229460D02*
X20954230Y-16238984D01*
X20954230Y-16238984D02*
X20992325Y-16238984D01*
X20992325Y-16238984D02*
X21011373Y-16229460D01*
X21011373Y-16229460D02*
X21020896Y-16210412D01*
X21020896Y-16210412D02*
X21020896Y-16200888D01*
X21020896Y-16200888D02*
X21011373Y-16181841D01*
X21011373Y-16181841D02*
X20992325Y-16172317D01*
X20992325Y-16172317D02*
X20963753Y-16172317D01*
X20963753Y-16172317D02*
X20944706Y-16162793D01*
X20944706Y-16162793D02*
X20935182Y-16143746D01*
X20935182Y-16143746D02*
X20935182Y-16134222D01*
X20935182Y-16134222D02*
X20944706Y-16115174D01*
X20944706Y-16115174D02*
X20963753Y-16105650D01*
X20963753Y-16105650D02*
X20992325Y-16105650D01*
X20992325Y-16105650D02*
X21011373Y-16115174D01*
X21087563Y-16315174D02*
X21097087Y-16305650D01*
X21097087Y-16305650D02*
X21116134Y-16277079D01*
X21116134Y-16277079D02*
X21125658Y-16258031D01*
X21125658Y-16258031D02*
X21135182Y-16229460D01*
X21135182Y-16229460D02*
X21144706Y-16181841D01*
X21144706Y-16181841D02*
X21144706Y-16143746D01*
X21144706Y-16143746D02*
X21135182Y-16096127D01*
X21135182Y-16096127D02*
X21125658Y-16067555D01*
X21125658Y-16067555D02*
X21116134Y-16048508D01*
X21116134Y-16048508D02*
X21097087Y-16019936D01*
X21097087Y-16019936D02*
X21087563Y-16010412D01*
D11*
X16300784Y-16439784D02*
X16300784Y-16383215D01*
X16244215Y-16383215D01*
X16244215Y-16439784D01*
X16300784Y-16439784D01*
D12*
X16611372Y-16302984D02*
X16630420Y-16302984D01*
X16630420Y-16302984D02*
X16649467Y-16312508D01*
X16649467Y-16312508D02*
X16658991Y-16322031D01*
X16658991Y-16322031D02*
X16668515Y-16341079D01*
X16668515Y-16341079D02*
X16678039Y-16379174D01*
X16678039Y-16379174D02*
X16678039Y-16426793D01*
X16678039Y-16426793D02*
X16668515Y-16464888D01*
X16668515Y-16464888D02*
X16658991Y-16483936D01*
X16658991Y-16483936D02*
X16649467Y-16493460D01*
X16649467Y-16493460D02*
X16630420Y-16502984D01*
X16630420Y-16502984D02*
X16611372Y-16502984D01*
X16611372Y-16502984D02*
X16592324Y-16493460D01*
X16592324Y-16493460D02*
X16582801Y-16483936D01*
X16582801Y-16483936D02*
X16573277Y-16464888D01*
X16573277Y-16464888D02*
X16563753Y-16426793D01*
X16563753Y-16426793D02*
X16563753Y-16379174D01*
X16563753Y-16379174D02*
X16573277Y-16341079D01*
X16573277Y-16341079D02*
X16582801Y-16322031D01*
X16582801Y-16322031D02*
X16592324Y-16312508D01*
X16592324Y-16312508D02*
X16611372Y-16302984D01*
X16763753Y-16483936D02*
X16773277Y-16493460D01*
X16773277Y-16493460D02*
X16763753Y-16502984D01*
X16763753Y-16502984D02*
X16754229Y-16493460D01*
X16754229Y-16493460D02*
X16763753Y-16483936D01*
X16763753Y-16483936D02*
X16763753Y-16502984D01*
X16887563Y-16388698D02*
X16868515Y-16379174D01*
X16868515Y-16379174D02*
X16858991Y-16369650D01*
X16858991Y-16369650D02*
X16849467Y-16350603D01*
X16849467Y-16350603D02*
X16849467Y-16341079D01*
X16849467Y-16341079D02*
X16858991Y-16322031D01*
X16858991Y-16322031D02*
X16868515Y-16312508D01*
X16868515Y-16312508D02*
X16887563Y-16302984D01*
X16887563Y-16302984D02*
X16925658Y-16302984D01*
X16925658Y-16302984D02*
X16944705Y-16312508D01*
X16944705Y-16312508D02*
X16954229Y-16322031D01*
X16954229Y-16322031D02*
X16963753Y-16341079D01*
X16963753Y-16341079D02*
X16963753Y-16350603D01*
X16963753Y-16350603D02*
X16954229Y-16369650D01*
X16954229Y-16369650D02*
X16944705Y-16379174D01*
X16944705Y-16379174D02*
X16925658Y-16388698D01*
X16925658Y-16388698D02*
X16887563Y-16388698D01*
X16887563Y-16388698D02*
X16868515Y-16398222D01*
X16868515Y-16398222D02*
X16858991Y-16407746D01*
X16858991Y-16407746D02*
X16849467Y-16426793D01*
X16849467Y-16426793D02*
X16849467Y-16464888D01*
X16849467Y-16464888D02*
X16858991Y-16483936D01*
X16858991Y-16483936D02*
X16868515Y-16493460D01*
X16868515Y-16493460D02*
X16887563Y-16502984D01*
X16887563Y-16502984D02*
X16925658Y-16502984D01*
X16925658Y-16502984D02*
X16944705Y-16493460D01*
X16944705Y-16493460D02*
X16954229Y-16483936D01*
X16954229Y-16483936D02*
X16963753Y-16464888D01*
X16963753Y-16464888D02*
X16963753Y-16426793D01*
X16963753Y-16426793D02*
X16954229Y-16407746D01*
X16954229Y-16407746D02*
X16944705Y-16398222D01*
X16944705Y-16398222D02*
X16925658Y-16388698D01*
X17087563Y-16302984D02*
X17106610Y-16302984D01*
X17106610Y-16302984D02*
X17125658Y-16312508D01*
X17125658Y-16312508D02*
X17135182Y-16322031D01*
X17135182Y-16322031D02*
X17144705Y-16341079D01*
X17144705Y-16341079D02*
X17154229Y-16379174D01*
X17154229Y-16379174D02*
X17154229Y-16426793D01*
X17154229Y-16426793D02*
X17144705Y-16464888D01*
X17144705Y-16464888D02*
X17135182Y-16483936D01*
X17135182Y-16483936D02*
X17125658Y-16493460D01*
X17125658Y-16493460D02*
X17106610Y-16502984D01*
X17106610Y-16502984D02*
X17087563Y-16502984D01*
X17087563Y-16502984D02*
X17068515Y-16493460D01*
X17068515Y-16493460D02*
X17058991Y-16483936D01*
X17058991Y-16483936D02*
X17049467Y-16464888D01*
X17049467Y-16464888D02*
X17039944Y-16426793D01*
X17039944Y-16426793D02*
X17039944Y-16379174D01*
X17039944Y-16379174D02*
X17049467Y-16341079D01*
X17049467Y-16341079D02*
X17058991Y-16322031D01*
X17058991Y-16322031D02*
X17068515Y-16312508D01*
X17068515Y-16312508D02*
X17087563Y-16302984D01*
X17278039Y-16302984D02*
X17297086Y-16302984D01*
X17297086Y-16302984D02*
X17316134Y-16312508D01*
X17316134Y-16312508D02*
X17325658Y-16322031D01*
X17325658Y-16322031D02*
X17335182Y-16341079D01*
X17335182Y-16341079D02*
X17344705Y-16379174D01*
X17344705Y-16379174D02*
X17344705Y-16426793D01*
X17344705Y-16426793D02*
X17335182Y-16464888D01*
X17335182Y-16464888D02*
X17325658Y-16483936D01*
X17325658Y-16483936D02*
X17316134Y-16493460D01*
X17316134Y-16493460D02*
X17297086Y-16502984D01*
X17297086Y-16502984D02*
X17278039Y-16502984D01*
X17278039Y-16502984D02*
X17258991Y-16493460D01*
X17258991Y-16493460D02*
X17249467Y-16483936D01*
X17249467Y-16483936D02*
X17239944Y-16464888D01*
X17239944Y-16464888D02*
X17230420Y-16426793D01*
X17230420Y-16426793D02*
X17230420Y-16379174D01*
X17230420Y-16379174D02*
X17239944Y-16341079D01*
X17239944Y-16341079D02*
X17249467Y-16322031D01*
X17249467Y-16322031D02*
X17258991Y-16312508D01*
X17258991Y-16312508D02*
X17278039Y-16302984D01*
X17430420Y-16502984D02*
X17430420Y-16369650D01*
X17430420Y-16388698D02*
X17439944Y-16379174D01*
X17439944Y-16379174D02*
X17458991Y-16369650D01*
X17458991Y-16369650D02*
X17487563Y-16369650D01*
X17487563Y-16369650D02*
X17506610Y-16379174D01*
X17506610Y-16379174D02*
X17516134Y-16398222D01*
X17516134Y-16398222D02*
X17516134Y-16502984D01*
X17516134Y-16398222D02*
X17525658Y-16379174D01*
X17525658Y-16379174D02*
X17544705Y-16369650D01*
X17544705Y-16369650D02*
X17573277Y-16369650D01*
X17573277Y-16369650D02*
X17592325Y-16379174D01*
X17592325Y-16379174D02*
X17601848Y-16398222D01*
X17601848Y-16398222D02*
X17601848Y-16502984D01*
X17697086Y-16502984D02*
X17697086Y-16369650D01*
X17697086Y-16388698D02*
X17706610Y-16379174D01*
X17706610Y-16379174D02*
X17725658Y-16369650D01*
X17725658Y-16369650D02*
X17754229Y-16369650D01*
X17754229Y-16369650D02*
X17773277Y-16379174D01*
X17773277Y-16379174D02*
X17782801Y-16398222D01*
X17782801Y-16398222D02*
X17782801Y-16502984D01*
X17782801Y-16398222D02*
X17792325Y-16379174D01*
X17792325Y-16379174D02*
X17811372Y-16369650D01*
X17811372Y-16369650D02*
X17839944Y-16369650D01*
X17839944Y-16369650D02*
X17858991Y-16379174D01*
X17858991Y-16379174D02*
X17868515Y-16398222D01*
X17868515Y-16398222D02*
X17868515Y-16502984D01*
X18258991Y-16293460D02*
X18087563Y-16550603D01*
X18516134Y-16302984D02*
X18535182Y-16302984D01*
X18535182Y-16302984D02*
X18554229Y-16312508D01*
X18554229Y-16312508D02*
X18563753Y-16322031D01*
X18563753Y-16322031D02*
X18573277Y-16341079D01*
X18573277Y-16341079D02*
X18582801Y-16379174D01*
X18582801Y-16379174D02*
X18582801Y-16426793D01*
X18582801Y-16426793D02*
X18573277Y-16464888D01*
X18573277Y-16464888D02*
X18563753Y-16483936D01*
X18563753Y-16483936D02*
X18554229Y-16493460D01*
X18554229Y-16493460D02*
X18535182Y-16502984D01*
X18535182Y-16502984D02*
X18516134Y-16502984D01*
X18516134Y-16502984D02*
X18497087Y-16493460D01*
X18497087Y-16493460D02*
X18487563Y-16483936D01*
X18487563Y-16483936D02*
X18478039Y-16464888D01*
X18478039Y-16464888D02*
X18468515Y-16426793D01*
X18468515Y-16426793D02*
X18468515Y-16379174D01*
X18468515Y-16379174D02*
X18478039Y-16341079D01*
X18478039Y-16341079D02*
X18487563Y-16322031D01*
X18487563Y-16322031D02*
X18497087Y-16312508D01*
X18497087Y-16312508D02*
X18516134Y-16302984D01*
X18668515Y-16483936D02*
X18678039Y-16493460D01*
X18678039Y-16493460D02*
X18668515Y-16502984D01*
X18668515Y-16502984D02*
X18658991Y-16493460D01*
X18658991Y-16493460D02*
X18668515Y-16483936D01*
X18668515Y-16483936D02*
X18668515Y-16502984D01*
X18801848Y-16302984D02*
X18820896Y-16302984D01*
X18820896Y-16302984D02*
X18839944Y-16312508D01*
X18839944Y-16312508D02*
X18849468Y-16322031D01*
X18849468Y-16322031D02*
X18858991Y-16341079D01*
X18858991Y-16341079D02*
X18868515Y-16379174D01*
X18868515Y-16379174D02*
X18868515Y-16426793D01*
X18868515Y-16426793D02*
X18858991Y-16464888D01*
X18858991Y-16464888D02*
X18849468Y-16483936D01*
X18849468Y-16483936D02*
X18839944Y-16493460D01*
X18839944Y-16493460D02*
X18820896Y-16502984D01*
X18820896Y-16502984D02*
X18801848Y-16502984D01*
X18801848Y-16502984D02*
X18782801Y-16493460D01*
X18782801Y-16493460D02*
X18773277Y-16483936D01*
X18773277Y-16483936D02*
X18763753Y-16464888D01*
X18763753Y-16464888D02*
X18754229Y-16426793D01*
X18754229Y-16426793D02*
X18754229Y-16379174D01*
X18754229Y-16379174D02*
X18763753Y-16341079D01*
X18763753Y-16341079D02*
X18773277Y-16322031D01*
X18773277Y-16322031D02*
X18782801Y-16312508D01*
X18782801Y-16312508D02*
X18801848Y-16302984D01*
X18935182Y-16302984D02*
X19058991Y-16302984D01*
X19058991Y-16302984D02*
X18992325Y-16379174D01*
X18992325Y-16379174D02*
X19020896Y-16379174D01*
X19020896Y-16379174D02*
X19039944Y-16388698D01*
X19039944Y-16388698D02*
X19049468Y-16398222D01*
X19049468Y-16398222D02*
X19058991Y-16417269D01*
X19058991Y-16417269D02*
X19058991Y-16464888D01*
X19058991Y-16464888D02*
X19049468Y-16483936D01*
X19049468Y-16483936D02*
X19039944Y-16493460D01*
X19039944Y-16493460D02*
X19020896Y-16502984D01*
X19020896Y-16502984D02*
X18963753Y-16502984D01*
X18963753Y-16502984D02*
X18944706Y-16493460D01*
X18944706Y-16493460D02*
X18935182Y-16483936D01*
X19249468Y-16502984D02*
X19135182Y-16502984D01*
X19192325Y-16502984D02*
X19192325Y-16302984D01*
X19192325Y-16302984D02*
X19173277Y-16331555D01*
X19173277Y-16331555D02*
X19154229Y-16350603D01*
X19154229Y-16350603D02*
X19135182Y-16360127D01*
X19430420Y-16302984D02*
X19335182Y-16302984D01*
X19335182Y-16302984D02*
X19325658Y-16398222D01*
X19325658Y-16398222D02*
X19335182Y-16388698D01*
X19335182Y-16388698D02*
X19354229Y-16379174D01*
X19354229Y-16379174D02*
X19401849Y-16379174D01*
X19401849Y-16379174D02*
X19420896Y-16388698D01*
X19420896Y-16388698D02*
X19430420Y-16398222D01*
X19430420Y-16398222D02*
X19439944Y-16417269D01*
X19439944Y-16417269D02*
X19439944Y-16464888D01*
X19439944Y-16464888D02*
X19430420Y-16483936D01*
X19430420Y-16483936D02*
X19420896Y-16493460D01*
X19420896Y-16493460D02*
X19401849Y-16502984D01*
X19401849Y-16502984D02*
X19354229Y-16502984D01*
X19354229Y-16502984D02*
X19335182Y-16493460D01*
X19335182Y-16493460D02*
X19325658Y-16483936D01*
X19516134Y-16302984D02*
X19516134Y-16341079D01*
X19592325Y-16302984D02*
X19592325Y-16341079D01*
X19887563Y-16579174D02*
X19878039Y-16569650D01*
X19878039Y-16569650D02*
X19858991Y-16541079D01*
X19858991Y-16541079D02*
X19849468Y-16522031D01*
X19849468Y-16522031D02*
X19839944Y-16493460D01*
X19839944Y-16493460D02*
X19830420Y-16445841D01*
X19830420Y-16445841D02*
X19830420Y-16407746D01*
X19830420Y-16407746D02*
X19839944Y-16360127D01*
X19839944Y-16360127D02*
X19849468Y-16331555D01*
X19849468Y-16331555D02*
X19858991Y-16312508D01*
X19858991Y-16312508D02*
X19878039Y-16283936D01*
X19878039Y-16283936D02*
X19887563Y-16274412D01*
X19992325Y-16388698D02*
X19973277Y-16379174D01*
X19973277Y-16379174D02*
X19963753Y-16369650D01*
X19963753Y-16369650D02*
X19954230Y-16350603D01*
X19954230Y-16350603D02*
X19954230Y-16341079D01*
X19954230Y-16341079D02*
X19963753Y-16322031D01*
X19963753Y-16322031D02*
X19973277Y-16312508D01*
X19973277Y-16312508D02*
X19992325Y-16302984D01*
X19992325Y-16302984D02*
X20030420Y-16302984D01*
X20030420Y-16302984D02*
X20049468Y-16312508D01*
X20049468Y-16312508D02*
X20058991Y-16322031D01*
X20058991Y-16322031D02*
X20068515Y-16341079D01*
X20068515Y-16341079D02*
X20068515Y-16350603D01*
X20068515Y-16350603D02*
X20058991Y-16369650D01*
X20058991Y-16369650D02*
X20049468Y-16379174D01*
X20049468Y-16379174D02*
X20030420Y-16388698D01*
X20030420Y-16388698D02*
X19992325Y-16388698D01*
X19992325Y-16388698D02*
X19973277Y-16398222D01*
X19973277Y-16398222D02*
X19963753Y-16407746D01*
X19963753Y-16407746D02*
X19954230Y-16426793D01*
X19954230Y-16426793D02*
X19954230Y-16464888D01*
X19954230Y-16464888D02*
X19963753Y-16483936D01*
X19963753Y-16483936D02*
X19973277Y-16493460D01*
X19973277Y-16493460D02*
X19992325Y-16502984D01*
X19992325Y-16502984D02*
X20030420Y-16502984D01*
X20030420Y-16502984D02*
X20049468Y-16493460D01*
X20049468Y-16493460D02*
X20058991Y-16483936D01*
X20058991Y-16483936D02*
X20068515Y-16464888D01*
X20068515Y-16464888D02*
X20068515Y-16426793D01*
X20068515Y-16426793D02*
X20058991Y-16407746D01*
X20058991Y-16407746D02*
X20049468Y-16398222D01*
X20049468Y-16398222D02*
X20030420Y-16388698D01*
X20306611Y-16502984D02*
X20306611Y-16302984D01*
X20392325Y-16502984D02*
X20392325Y-16398222D01*
X20392325Y-16398222D02*
X20382801Y-16379174D01*
X20382801Y-16379174D02*
X20363753Y-16369650D01*
X20363753Y-16369650D02*
X20335182Y-16369650D01*
X20335182Y-16369650D02*
X20316134Y-16379174D01*
X20316134Y-16379174D02*
X20306611Y-16388698D01*
X20516134Y-16502984D02*
X20497087Y-16493460D01*
X20497087Y-16493460D02*
X20487563Y-16483936D01*
X20487563Y-16483936D02*
X20478039Y-16464888D01*
X20478039Y-16464888D02*
X20478039Y-16407746D01*
X20478039Y-16407746D02*
X20487563Y-16388698D01*
X20487563Y-16388698D02*
X20497087Y-16379174D01*
X20497087Y-16379174D02*
X20516134Y-16369650D01*
X20516134Y-16369650D02*
X20544706Y-16369650D01*
X20544706Y-16369650D02*
X20563753Y-16379174D01*
X20563753Y-16379174D02*
X20573277Y-16388698D01*
X20573277Y-16388698D02*
X20582801Y-16407746D01*
X20582801Y-16407746D02*
X20582801Y-16464888D01*
X20582801Y-16464888D02*
X20573277Y-16483936D01*
X20573277Y-16483936D02*
X20563753Y-16493460D01*
X20563753Y-16493460D02*
X20544706Y-16502984D01*
X20544706Y-16502984D02*
X20516134Y-16502984D01*
X20697087Y-16502984D02*
X20678039Y-16493460D01*
X20678039Y-16493460D02*
X20668515Y-16474412D01*
X20668515Y-16474412D02*
X20668515Y-16302984D01*
X20849468Y-16493460D02*
X20830420Y-16502984D01*
X20830420Y-16502984D02*
X20792325Y-16502984D01*
X20792325Y-16502984D02*
X20773277Y-16493460D01*
X20773277Y-16493460D02*
X20763753Y-16474412D01*
X20763753Y-16474412D02*
X20763753Y-16398222D01*
X20763753Y-16398222D02*
X20773277Y-16379174D01*
X20773277Y-16379174D02*
X20792325Y-16369650D01*
X20792325Y-16369650D02*
X20830420Y-16369650D01*
X20830420Y-16369650D02*
X20849468Y-16379174D01*
X20849468Y-16379174D02*
X20858992Y-16398222D01*
X20858992Y-16398222D02*
X20858992Y-16417269D01*
X20858992Y-16417269D02*
X20763753Y-16436317D01*
X20935182Y-16493460D02*
X20954230Y-16502984D01*
X20954230Y-16502984D02*
X20992325Y-16502984D01*
X20992325Y-16502984D02*
X21011373Y-16493460D01*
X21011373Y-16493460D02*
X21020896Y-16474412D01*
X21020896Y-16474412D02*
X21020896Y-16464888D01*
X21020896Y-16464888D02*
X21011373Y-16445841D01*
X21011373Y-16445841D02*
X20992325Y-16436317D01*
X20992325Y-16436317D02*
X20963753Y-16436317D01*
X20963753Y-16436317D02*
X20944706Y-16426793D01*
X20944706Y-16426793D02*
X20935182Y-16407746D01*
X20935182Y-16407746D02*
X20935182Y-16398222D01*
X20935182Y-16398222D02*
X20944706Y-16379174D01*
X20944706Y-16379174D02*
X20963753Y-16369650D01*
X20963753Y-16369650D02*
X20992325Y-16369650D01*
X20992325Y-16369650D02*
X21011373Y-16379174D01*
X21087563Y-16579174D02*
X21097087Y-16569650D01*
X21097087Y-16569650D02*
X21116134Y-16541079D01*
X21116134Y-16541079D02*
X21125658Y-16522031D01*
X21125658Y-16522031D02*
X21135182Y-16493460D01*
X21135182Y-16493460D02*
X21144706Y-16445841D01*
X21144706Y-16445841D02*
X21144706Y-16407746D01*
X21144706Y-16407746D02*
X21135182Y-16360127D01*
X21135182Y-16360127D02*
X21125658Y-16331555D01*
X21125658Y-16331555D02*
X21116134Y-16312508D01*
X21116134Y-16312508D02*
X21097087Y-16283936D01*
X21097087Y-16283936D02*
X21087563Y-16274412D01*
D11*
X16262500Y-16725500D02*
X16312500Y-16675500D01*
X16262500Y-16625500D01*
X16212500Y-16675500D01*
X16262500Y-16725500D01*
D12*
X16678039Y-16766984D02*
X16563753Y-16766984D01*
X16620896Y-16766984D02*
X16620896Y-16566984D01*
X16620896Y-16566984D02*
X16601848Y-16595555D01*
X16601848Y-16595555D02*
X16582801Y-16614603D01*
X16582801Y-16614603D02*
X16563753Y-16624127D01*
X16763753Y-16747936D02*
X16773277Y-16757460D01*
X16773277Y-16757460D02*
X16763753Y-16766984D01*
X16763753Y-16766984D02*
X16754229Y-16757460D01*
X16754229Y-16757460D02*
X16763753Y-16747936D01*
X16763753Y-16747936D02*
X16763753Y-16766984D01*
X16897086Y-16566984D02*
X16916134Y-16566984D01*
X16916134Y-16566984D02*
X16935182Y-16576508D01*
X16935182Y-16576508D02*
X16944705Y-16586031D01*
X16944705Y-16586031D02*
X16954229Y-16605079D01*
X16954229Y-16605079D02*
X16963753Y-16643174D01*
X16963753Y-16643174D02*
X16963753Y-16690793D01*
X16963753Y-16690793D02*
X16954229Y-16728888D01*
X16954229Y-16728888D02*
X16944705Y-16747936D01*
X16944705Y-16747936D02*
X16935182Y-16757460D01*
X16935182Y-16757460D02*
X16916134Y-16766984D01*
X16916134Y-16766984D02*
X16897086Y-16766984D01*
X16897086Y-16766984D02*
X16878039Y-16757460D01*
X16878039Y-16757460D02*
X16868515Y-16747936D01*
X16868515Y-16747936D02*
X16858991Y-16728888D01*
X16858991Y-16728888D02*
X16849467Y-16690793D01*
X16849467Y-16690793D02*
X16849467Y-16643174D01*
X16849467Y-16643174D02*
X16858991Y-16605079D01*
X16858991Y-16605079D02*
X16868515Y-16586031D01*
X16868515Y-16586031D02*
X16878039Y-16576508D01*
X16878039Y-16576508D02*
X16897086Y-16566984D01*
X17087563Y-16566984D02*
X17106610Y-16566984D01*
X17106610Y-16566984D02*
X17125658Y-16576508D01*
X17125658Y-16576508D02*
X17135182Y-16586031D01*
X17135182Y-16586031D02*
X17144705Y-16605079D01*
X17144705Y-16605079D02*
X17154229Y-16643174D01*
X17154229Y-16643174D02*
X17154229Y-16690793D01*
X17154229Y-16690793D02*
X17144705Y-16728888D01*
X17144705Y-16728888D02*
X17135182Y-16747936D01*
X17135182Y-16747936D02*
X17125658Y-16757460D01*
X17125658Y-16757460D02*
X17106610Y-16766984D01*
X17106610Y-16766984D02*
X17087563Y-16766984D01*
X17087563Y-16766984D02*
X17068515Y-16757460D01*
X17068515Y-16757460D02*
X17058991Y-16747936D01*
X17058991Y-16747936D02*
X17049467Y-16728888D01*
X17049467Y-16728888D02*
X17039944Y-16690793D01*
X17039944Y-16690793D02*
X17039944Y-16643174D01*
X17039944Y-16643174D02*
X17049467Y-16605079D01*
X17049467Y-16605079D02*
X17058991Y-16586031D01*
X17058991Y-16586031D02*
X17068515Y-16576508D01*
X17068515Y-16576508D02*
X17087563Y-16566984D01*
X17278039Y-16566984D02*
X17297086Y-16566984D01*
X17297086Y-16566984D02*
X17316134Y-16576508D01*
X17316134Y-16576508D02*
X17325658Y-16586031D01*
X17325658Y-16586031D02*
X17335182Y-16605079D01*
X17335182Y-16605079D02*
X17344705Y-16643174D01*
X17344705Y-16643174D02*
X17344705Y-16690793D01*
X17344705Y-16690793D02*
X17335182Y-16728888D01*
X17335182Y-16728888D02*
X17325658Y-16747936D01*
X17325658Y-16747936D02*
X17316134Y-16757460D01*
X17316134Y-16757460D02*
X17297086Y-16766984D01*
X17297086Y-16766984D02*
X17278039Y-16766984D01*
X17278039Y-16766984D02*
X17258991Y-16757460D01*
X17258991Y-16757460D02*
X17249467Y-16747936D01*
X17249467Y-16747936D02*
X17239944Y-16728888D01*
X17239944Y-16728888D02*
X17230420Y-16690793D01*
X17230420Y-16690793D02*
X17230420Y-16643174D01*
X17230420Y-16643174D02*
X17239944Y-16605079D01*
X17239944Y-16605079D02*
X17249467Y-16586031D01*
X17249467Y-16586031D02*
X17258991Y-16576508D01*
X17258991Y-16576508D02*
X17278039Y-16566984D01*
X17430420Y-16766984D02*
X17430420Y-16633650D01*
X17430420Y-16652698D02*
X17439944Y-16643174D01*
X17439944Y-16643174D02*
X17458991Y-16633650D01*
X17458991Y-16633650D02*
X17487563Y-16633650D01*
X17487563Y-16633650D02*
X17506610Y-16643174D01*
X17506610Y-16643174D02*
X17516134Y-16662222D01*
X17516134Y-16662222D02*
X17516134Y-16766984D01*
X17516134Y-16662222D02*
X17525658Y-16643174D01*
X17525658Y-16643174D02*
X17544705Y-16633650D01*
X17544705Y-16633650D02*
X17573277Y-16633650D01*
X17573277Y-16633650D02*
X17592325Y-16643174D01*
X17592325Y-16643174D02*
X17601848Y-16662222D01*
X17601848Y-16662222D02*
X17601848Y-16766984D01*
X17697086Y-16766984D02*
X17697086Y-16633650D01*
X17697086Y-16652698D02*
X17706610Y-16643174D01*
X17706610Y-16643174D02*
X17725658Y-16633650D01*
X17725658Y-16633650D02*
X17754229Y-16633650D01*
X17754229Y-16633650D02*
X17773277Y-16643174D01*
X17773277Y-16643174D02*
X17782801Y-16662222D01*
X17782801Y-16662222D02*
X17782801Y-16766984D01*
X17782801Y-16662222D02*
X17792325Y-16643174D01*
X17792325Y-16643174D02*
X17811372Y-16633650D01*
X17811372Y-16633650D02*
X17839944Y-16633650D01*
X17839944Y-16633650D02*
X17858991Y-16643174D01*
X17858991Y-16643174D02*
X17868515Y-16662222D01*
X17868515Y-16662222D02*
X17868515Y-16766984D01*
X18258991Y-16557460D02*
X18087563Y-16814603D01*
X18516134Y-16566984D02*
X18535182Y-16566984D01*
X18535182Y-16566984D02*
X18554229Y-16576508D01*
X18554229Y-16576508D02*
X18563753Y-16586031D01*
X18563753Y-16586031D02*
X18573277Y-16605079D01*
X18573277Y-16605079D02*
X18582801Y-16643174D01*
X18582801Y-16643174D02*
X18582801Y-16690793D01*
X18582801Y-16690793D02*
X18573277Y-16728888D01*
X18573277Y-16728888D02*
X18563753Y-16747936D01*
X18563753Y-16747936D02*
X18554229Y-16757460D01*
X18554229Y-16757460D02*
X18535182Y-16766984D01*
X18535182Y-16766984D02*
X18516134Y-16766984D01*
X18516134Y-16766984D02*
X18497087Y-16757460D01*
X18497087Y-16757460D02*
X18487563Y-16747936D01*
X18487563Y-16747936D02*
X18478039Y-16728888D01*
X18478039Y-16728888D02*
X18468515Y-16690793D01*
X18468515Y-16690793D02*
X18468515Y-16643174D01*
X18468515Y-16643174D02*
X18478039Y-16605079D01*
X18478039Y-16605079D02*
X18487563Y-16586031D01*
X18487563Y-16586031D02*
X18497087Y-16576508D01*
X18497087Y-16576508D02*
X18516134Y-16566984D01*
X18668515Y-16747936D02*
X18678039Y-16757460D01*
X18678039Y-16757460D02*
X18668515Y-16766984D01*
X18668515Y-16766984D02*
X18658991Y-16757460D01*
X18658991Y-16757460D02*
X18668515Y-16747936D01*
X18668515Y-16747936D02*
X18668515Y-16766984D01*
X18801848Y-16566984D02*
X18820896Y-16566984D01*
X18820896Y-16566984D02*
X18839944Y-16576508D01*
X18839944Y-16576508D02*
X18849468Y-16586031D01*
X18849468Y-16586031D02*
X18858991Y-16605079D01*
X18858991Y-16605079D02*
X18868515Y-16643174D01*
X18868515Y-16643174D02*
X18868515Y-16690793D01*
X18868515Y-16690793D02*
X18858991Y-16728888D01*
X18858991Y-16728888D02*
X18849468Y-16747936D01*
X18849468Y-16747936D02*
X18839944Y-16757460D01*
X18839944Y-16757460D02*
X18820896Y-16766984D01*
X18820896Y-16766984D02*
X18801848Y-16766984D01*
X18801848Y-16766984D02*
X18782801Y-16757460D01*
X18782801Y-16757460D02*
X18773277Y-16747936D01*
X18773277Y-16747936D02*
X18763753Y-16728888D01*
X18763753Y-16728888D02*
X18754229Y-16690793D01*
X18754229Y-16690793D02*
X18754229Y-16643174D01*
X18754229Y-16643174D02*
X18763753Y-16605079D01*
X18763753Y-16605079D02*
X18773277Y-16586031D01*
X18773277Y-16586031D02*
X18782801Y-16576508D01*
X18782801Y-16576508D02*
X18801848Y-16566984D01*
X18935182Y-16566984D02*
X19058991Y-16566984D01*
X19058991Y-16566984D02*
X18992325Y-16643174D01*
X18992325Y-16643174D02*
X19020896Y-16643174D01*
X19020896Y-16643174D02*
X19039944Y-16652698D01*
X19039944Y-16652698D02*
X19049468Y-16662222D01*
X19049468Y-16662222D02*
X19058991Y-16681269D01*
X19058991Y-16681269D02*
X19058991Y-16728888D01*
X19058991Y-16728888D02*
X19049468Y-16747936D01*
X19049468Y-16747936D02*
X19039944Y-16757460D01*
X19039944Y-16757460D02*
X19020896Y-16766984D01*
X19020896Y-16766984D02*
X18963753Y-16766984D01*
X18963753Y-16766984D02*
X18944706Y-16757460D01*
X18944706Y-16757460D02*
X18935182Y-16747936D01*
X19154229Y-16766984D02*
X19192325Y-16766984D01*
X19192325Y-16766984D02*
X19211372Y-16757460D01*
X19211372Y-16757460D02*
X19220896Y-16747936D01*
X19220896Y-16747936D02*
X19239944Y-16719365D01*
X19239944Y-16719365D02*
X19249468Y-16681269D01*
X19249468Y-16681269D02*
X19249468Y-16605079D01*
X19249468Y-16605079D02*
X19239944Y-16586031D01*
X19239944Y-16586031D02*
X19230420Y-16576508D01*
X19230420Y-16576508D02*
X19211372Y-16566984D01*
X19211372Y-16566984D02*
X19173277Y-16566984D01*
X19173277Y-16566984D02*
X19154229Y-16576508D01*
X19154229Y-16576508D02*
X19144706Y-16586031D01*
X19144706Y-16586031D02*
X19135182Y-16605079D01*
X19135182Y-16605079D02*
X19135182Y-16652698D01*
X19135182Y-16652698D02*
X19144706Y-16671746D01*
X19144706Y-16671746D02*
X19154229Y-16681269D01*
X19154229Y-16681269D02*
X19173277Y-16690793D01*
X19173277Y-16690793D02*
X19211372Y-16690793D01*
X19211372Y-16690793D02*
X19230420Y-16681269D01*
X19230420Y-16681269D02*
X19239944Y-16671746D01*
X19239944Y-16671746D02*
X19249468Y-16652698D01*
X19420896Y-16633650D02*
X19420896Y-16766984D01*
X19373277Y-16557460D02*
X19325658Y-16700317D01*
X19325658Y-16700317D02*
X19449468Y-16700317D01*
X19516134Y-16566984D02*
X19516134Y-16605079D01*
X19592325Y-16566984D02*
X19592325Y-16605079D01*
X19887563Y-16843174D02*
X19878039Y-16833650D01*
X19878039Y-16833650D02*
X19858991Y-16805079D01*
X19858991Y-16805079D02*
X19849468Y-16786031D01*
X19849468Y-16786031D02*
X19839944Y-16757460D01*
X19839944Y-16757460D02*
X19830420Y-16709841D01*
X19830420Y-16709841D02*
X19830420Y-16671746D01*
X19830420Y-16671746D02*
X19839944Y-16624127D01*
X19839944Y-16624127D02*
X19849468Y-16595555D01*
X19849468Y-16595555D02*
X19858991Y-16576508D01*
X19858991Y-16576508D02*
X19878039Y-16547936D01*
X19878039Y-16547936D02*
X19887563Y-16538412D01*
X19954230Y-16586031D02*
X19963753Y-16576508D01*
X19963753Y-16576508D02*
X19982801Y-16566984D01*
X19982801Y-16566984D02*
X20030420Y-16566984D01*
X20030420Y-16566984D02*
X20049468Y-16576508D01*
X20049468Y-16576508D02*
X20058991Y-16586031D01*
X20058991Y-16586031D02*
X20068515Y-16605079D01*
X20068515Y-16605079D02*
X20068515Y-16624127D01*
X20068515Y-16624127D02*
X20058991Y-16652698D01*
X20058991Y-16652698D02*
X19944706Y-16766984D01*
X19944706Y-16766984D02*
X20068515Y-16766984D01*
X20144706Y-16586031D02*
X20154230Y-16576508D01*
X20154230Y-16576508D02*
X20173277Y-16566984D01*
X20173277Y-16566984D02*
X20220896Y-16566984D01*
X20220896Y-16566984D02*
X20239944Y-16576508D01*
X20239944Y-16576508D02*
X20249468Y-16586031D01*
X20249468Y-16586031D02*
X20258991Y-16605079D01*
X20258991Y-16605079D02*
X20258991Y-16624127D01*
X20258991Y-16624127D02*
X20249468Y-16652698D01*
X20249468Y-16652698D02*
X20135182Y-16766984D01*
X20135182Y-16766984D02*
X20258991Y-16766984D01*
X20497087Y-16766984D02*
X20497087Y-16566984D01*
X20582801Y-16766984D02*
X20582801Y-16662222D01*
X20582801Y-16662222D02*
X20573277Y-16643174D01*
X20573277Y-16643174D02*
X20554230Y-16633650D01*
X20554230Y-16633650D02*
X20525658Y-16633650D01*
X20525658Y-16633650D02*
X20506611Y-16643174D01*
X20506611Y-16643174D02*
X20497087Y-16652698D01*
X20706611Y-16766984D02*
X20687563Y-16757460D01*
X20687563Y-16757460D02*
X20678039Y-16747936D01*
X20678039Y-16747936D02*
X20668515Y-16728888D01*
X20668515Y-16728888D02*
X20668515Y-16671746D01*
X20668515Y-16671746D02*
X20678039Y-16652698D01*
X20678039Y-16652698D02*
X20687563Y-16643174D01*
X20687563Y-16643174D02*
X20706611Y-16633650D01*
X20706611Y-16633650D02*
X20735182Y-16633650D01*
X20735182Y-16633650D02*
X20754230Y-16643174D01*
X20754230Y-16643174D02*
X20763753Y-16652698D01*
X20763753Y-16652698D02*
X20773277Y-16671746D01*
X20773277Y-16671746D02*
X20773277Y-16728888D01*
X20773277Y-16728888D02*
X20763753Y-16747936D01*
X20763753Y-16747936D02*
X20754230Y-16757460D01*
X20754230Y-16757460D02*
X20735182Y-16766984D01*
X20735182Y-16766984D02*
X20706611Y-16766984D01*
X20887563Y-16766984D02*
X20868515Y-16757460D01*
X20868515Y-16757460D02*
X20858992Y-16738412D01*
X20858992Y-16738412D02*
X20858992Y-16566984D01*
X21039944Y-16757460D02*
X21020896Y-16766984D01*
X21020896Y-16766984D02*
X20982801Y-16766984D01*
X20982801Y-16766984D02*
X20963753Y-16757460D01*
X20963753Y-16757460D02*
X20954230Y-16738412D01*
X20954230Y-16738412D02*
X20954230Y-16662222D01*
X20954230Y-16662222D02*
X20963753Y-16643174D01*
X20963753Y-16643174D02*
X20982801Y-16633650D01*
X20982801Y-16633650D02*
X21020896Y-16633650D01*
X21020896Y-16633650D02*
X21039944Y-16643174D01*
X21039944Y-16643174D02*
X21049468Y-16662222D01*
X21049468Y-16662222D02*
X21049468Y-16681269D01*
X21049468Y-16681269D02*
X20954230Y-16700317D01*
X21125658Y-16757460D02*
X21144706Y-16766984D01*
X21144706Y-16766984D02*
X21182801Y-16766984D01*
X21182801Y-16766984D02*
X21201849Y-16757460D01*
X21201849Y-16757460D02*
X21211373Y-16738412D01*
X21211373Y-16738412D02*
X21211373Y-16728888D01*
X21211373Y-16728888D02*
X21201849Y-16709841D01*
X21201849Y-16709841D02*
X21182801Y-16700317D01*
X21182801Y-16700317D02*
X21154230Y-16700317D01*
X21154230Y-16700317D02*
X21135182Y-16690793D01*
X21135182Y-16690793D02*
X21125658Y-16671746D01*
X21125658Y-16671746D02*
X21125658Y-16662222D01*
X21125658Y-16662222D02*
X21135182Y-16643174D01*
X21135182Y-16643174D02*
X21154230Y-16633650D01*
X21154230Y-16633650D02*
X21182801Y-16633650D01*
X21182801Y-16633650D02*
X21201849Y-16643174D01*
X21449468Y-16690793D02*
X21601849Y-16690793D01*
X21525658Y-16766984D02*
X21525658Y-16614603D01*
X21830420Y-16566984D02*
X21954230Y-16566984D01*
X21954230Y-16566984D02*
X21887563Y-16643174D01*
X21887563Y-16643174D02*
X21916135Y-16643174D01*
X21916135Y-16643174D02*
X21935182Y-16652698D01*
X21935182Y-16652698D02*
X21944706Y-16662222D01*
X21944706Y-16662222D02*
X21954230Y-16681269D01*
X21954230Y-16681269D02*
X21954230Y-16728888D01*
X21954230Y-16728888D02*
X21944706Y-16747936D01*
X21944706Y-16747936D02*
X21935182Y-16757460D01*
X21935182Y-16757460D02*
X21916135Y-16766984D01*
X21916135Y-16766984D02*
X21858992Y-16766984D01*
X21858992Y-16766984D02*
X21839944Y-16757460D01*
X21839944Y-16757460D02*
X21830420Y-16747936D01*
X22182801Y-16757460D02*
X22201849Y-16766984D01*
X22201849Y-16766984D02*
X22239944Y-16766984D01*
X22239944Y-16766984D02*
X22258992Y-16757460D01*
X22258992Y-16757460D02*
X22268516Y-16738412D01*
X22268516Y-16738412D02*
X22268516Y-16728888D01*
X22268516Y-16728888D02*
X22258992Y-16709841D01*
X22258992Y-16709841D02*
X22239944Y-16700317D01*
X22239944Y-16700317D02*
X22211373Y-16700317D01*
X22211373Y-16700317D02*
X22192325Y-16690793D01*
X22192325Y-16690793D02*
X22182801Y-16671746D01*
X22182801Y-16671746D02*
X22182801Y-16662222D01*
X22182801Y-16662222D02*
X22192325Y-16643174D01*
X22192325Y-16643174D02*
X22211373Y-16633650D01*
X22211373Y-16633650D02*
X22239944Y-16633650D01*
X22239944Y-16633650D02*
X22258992Y-16643174D01*
X22382801Y-16766984D02*
X22363754Y-16757460D01*
X22363754Y-16757460D02*
X22354230Y-16738412D01*
X22354230Y-16738412D02*
X22354230Y-16566984D01*
X22487563Y-16766984D02*
X22468515Y-16757460D01*
X22468515Y-16757460D02*
X22458992Y-16747936D01*
X22458992Y-16747936D02*
X22449468Y-16728888D01*
X22449468Y-16728888D02*
X22449468Y-16671746D01*
X22449468Y-16671746D02*
X22458992Y-16652698D01*
X22458992Y-16652698D02*
X22468515Y-16643174D01*
X22468515Y-16643174D02*
X22487563Y-16633650D01*
X22487563Y-16633650D02*
X22516135Y-16633650D01*
X22516135Y-16633650D02*
X22535182Y-16643174D01*
X22535182Y-16643174D02*
X22544706Y-16652698D01*
X22544706Y-16652698D02*
X22554230Y-16671746D01*
X22554230Y-16671746D02*
X22554230Y-16728888D01*
X22554230Y-16728888D02*
X22544706Y-16747936D01*
X22544706Y-16747936D02*
X22535182Y-16757460D01*
X22535182Y-16757460D02*
X22516135Y-16766984D01*
X22516135Y-16766984D02*
X22487563Y-16766984D01*
X22611373Y-16633650D02*
X22687563Y-16633650D01*
X22639944Y-16566984D02*
X22639944Y-16738412D01*
X22639944Y-16738412D02*
X22649468Y-16757460D01*
X22649468Y-16757460D02*
X22668515Y-16766984D01*
X22668515Y-16766984D02*
X22687563Y-16766984D01*
X22744706Y-16757460D02*
X22763754Y-16766984D01*
X22763754Y-16766984D02*
X22801849Y-16766984D01*
X22801849Y-16766984D02*
X22820896Y-16757460D01*
X22820896Y-16757460D02*
X22830420Y-16738412D01*
X22830420Y-16738412D02*
X22830420Y-16728888D01*
X22830420Y-16728888D02*
X22820896Y-16709841D01*
X22820896Y-16709841D02*
X22801849Y-16700317D01*
X22801849Y-16700317D02*
X22773277Y-16700317D01*
X22773277Y-16700317D02*
X22754230Y-16690793D01*
X22754230Y-16690793D02*
X22744706Y-16671746D01*
X22744706Y-16671746D02*
X22744706Y-16662222D01*
X22744706Y-16662222D02*
X22754230Y-16643174D01*
X22754230Y-16643174D02*
X22773277Y-16633650D01*
X22773277Y-16633650D02*
X22801849Y-16633650D01*
X22801849Y-16633650D02*
X22820896Y-16643174D01*
X22897087Y-16843174D02*
X22906611Y-16833650D01*
X22906611Y-16833650D02*
X22925658Y-16805079D01*
X22925658Y-16805079D02*
X22935182Y-16786031D01*
X22935182Y-16786031D02*
X22944706Y-16757460D01*
X22944706Y-16757460D02*
X22954230Y-16709841D01*
X22954230Y-16709841D02*
X22954230Y-16671746D01*
X22954230Y-16671746D02*
X22944706Y-16624127D01*
X22944706Y-16624127D02*
X22935182Y-16595555D01*
X22935182Y-16595555D02*
X22925658Y-16576508D01*
X22925658Y-16576508D02*
X22906611Y-16547936D01*
X22906611Y-16547936D02*
X22897087Y-16538412D01*
D13*
X16162500Y-16864500D02*
X16312500Y-17014500D01*
X16312500Y-16864500D02*
X16162500Y-17014500D01*
X16312500Y-16939500D02*
G75*
G02*
X16162500Y-16939500I-75000J0D01*
G01*
X16162500Y-16939500D02*
G75*
G02*
X16312500Y-16939500I75000J0D01*
G01*
D12*
X16678039Y-17030984D02*
X16563753Y-17030984D01*
X16620896Y-17030984D02*
X16620896Y-16830984D01*
X16620896Y-16830984D02*
X16601848Y-16859555D01*
X16601848Y-16859555D02*
X16582801Y-16878603D01*
X16582801Y-16878603D02*
X16563753Y-16888127D01*
X16763753Y-17011936D02*
X16773277Y-17021460D01*
X16773277Y-17021460D02*
X16763753Y-17030984D01*
X16763753Y-17030984D02*
X16754229Y-17021460D01*
X16754229Y-17021460D02*
X16763753Y-17011936D01*
X16763753Y-17011936D02*
X16763753Y-17030984D01*
X16954229Y-16830984D02*
X16858991Y-16830984D01*
X16858991Y-16830984D02*
X16849467Y-16926222D01*
X16849467Y-16926222D02*
X16858991Y-16916698D01*
X16858991Y-16916698D02*
X16878039Y-16907174D01*
X16878039Y-16907174D02*
X16925658Y-16907174D01*
X16925658Y-16907174D02*
X16944705Y-16916698D01*
X16944705Y-16916698D02*
X16954229Y-16926222D01*
X16954229Y-16926222D02*
X16963753Y-16945270D01*
X16963753Y-16945270D02*
X16963753Y-16992889D01*
X16963753Y-16992889D02*
X16954229Y-17011936D01*
X16954229Y-17011936D02*
X16944705Y-17021460D01*
X16944705Y-17021460D02*
X16925658Y-17030984D01*
X16925658Y-17030984D02*
X16878039Y-17030984D01*
X16878039Y-17030984D02*
X16858991Y-17021460D01*
X16858991Y-17021460D02*
X16849467Y-17011936D01*
X17087563Y-16830984D02*
X17106610Y-16830984D01*
X17106610Y-16830984D02*
X17125658Y-16840508D01*
X17125658Y-16840508D02*
X17135182Y-16850031D01*
X17135182Y-16850031D02*
X17144705Y-16869079D01*
X17144705Y-16869079D02*
X17154229Y-16907174D01*
X17154229Y-16907174D02*
X17154229Y-16954793D01*
X17154229Y-16954793D02*
X17144705Y-16992889D01*
X17144705Y-16992889D02*
X17135182Y-17011936D01*
X17135182Y-17011936D02*
X17125658Y-17021460D01*
X17125658Y-17021460D02*
X17106610Y-17030984D01*
X17106610Y-17030984D02*
X17087563Y-17030984D01*
X17087563Y-17030984D02*
X17068515Y-17021460D01*
X17068515Y-17021460D02*
X17058991Y-17011936D01*
X17058991Y-17011936D02*
X17049467Y-16992889D01*
X17049467Y-16992889D02*
X17039944Y-16954793D01*
X17039944Y-16954793D02*
X17039944Y-16907174D01*
X17039944Y-16907174D02*
X17049467Y-16869079D01*
X17049467Y-16869079D02*
X17058991Y-16850031D01*
X17058991Y-16850031D02*
X17068515Y-16840508D01*
X17068515Y-16840508D02*
X17087563Y-16830984D01*
X17278039Y-16830984D02*
X17297086Y-16830984D01*
X17297086Y-16830984D02*
X17316134Y-16840508D01*
X17316134Y-16840508D02*
X17325658Y-16850031D01*
X17325658Y-16850031D02*
X17335182Y-16869079D01*
X17335182Y-16869079D02*
X17344705Y-16907174D01*
X17344705Y-16907174D02*
X17344705Y-16954793D01*
X17344705Y-16954793D02*
X17335182Y-16992889D01*
X17335182Y-16992889D02*
X17325658Y-17011936D01*
X17325658Y-17011936D02*
X17316134Y-17021460D01*
X17316134Y-17021460D02*
X17297086Y-17030984D01*
X17297086Y-17030984D02*
X17278039Y-17030984D01*
X17278039Y-17030984D02*
X17258991Y-17021460D01*
X17258991Y-17021460D02*
X17249467Y-17011936D01*
X17249467Y-17011936D02*
X17239944Y-16992889D01*
X17239944Y-16992889D02*
X17230420Y-16954793D01*
X17230420Y-16954793D02*
X17230420Y-16907174D01*
X17230420Y-16907174D02*
X17239944Y-16869079D01*
X17239944Y-16869079D02*
X17249467Y-16850031D01*
X17249467Y-16850031D02*
X17258991Y-16840508D01*
X17258991Y-16840508D02*
X17278039Y-16830984D01*
X17430420Y-17030984D02*
X17430420Y-16897650D01*
X17430420Y-16916698D02*
X17439944Y-16907174D01*
X17439944Y-16907174D02*
X17458991Y-16897650D01*
X17458991Y-16897650D02*
X17487563Y-16897650D01*
X17487563Y-16897650D02*
X17506610Y-16907174D01*
X17506610Y-16907174D02*
X17516134Y-16926222D01*
X17516134Y-16926222D02*
X17516134Y-17030984D01*
X17516134Y-16926222D02*
X17525658Y-16907174D01*
X17525658Y-16907174D02*
X17544705Y-16897650D01*
X17544705Y-16897650D02*
X17573277Y-16897650D01*
X17573277Y-16897650D02*
X17592325Y-16907174D01*
X17592325Y-16907174D02*
X17601848Y-16926222D01*
X17601848Y-16926222D02*
X17601848Y-17030984D01*
X17697086Y-17030984D02*
X17697086Y-16897650D01*
X17697086Y-16916698D02*
X17706610Y-16907174D01*
X17706610Y-16907174D02*
X17725658Y-16897650D01*
X17725658Y-16897650D02*
X17754229Y-16897650D01*
X17754229Y-16897650D02*
X17773277Y-16907174D01*
X17773277Y-16907174D02*
X17782801Y-16926222D01*
X17782801Y-16926222D02*
X17782801Y-17030984D01*
X17782801Y-16926222D02*
X17792325Y-16907174D01*
X17792325Y-16907174D02*
X17811372Y-16897650D01*
X17811372Y-16897650D02*
X17839944Y-16897650D01*
X17839944Y-16897650D02*
X17858991Y-16907174D01*
X17858991Y-16907174D02*
X17868515Y-16926222D01*
X17868515Y-16926222D02*
X17868515Y-17030984D01*
X18258991Y-16821460D02*
X18087563Y-17078603D01*
X18516134Y-16830984D02*
X18535182Y-16830984D01*
X18535182Y-16830984D02*
X18554229Y-16840508D01*
X18554229Y-16840508D02*
X18563753Y-16850031D01*
X18563753Y-16850031D02*
X18573277Y-16869079D01*
X18573277Y-16869079D02*
X18582801Y-16907174D01*
X18582801Y-16907174D02*
X18582801Y-16954793D01*
X18582801Y-16954793D02*
X18573277Y-16992889D01*
X18573277Y-16992889D02*
X18563753Y-17011936D01*
X18563753Y-17011936D02*
X18554229Y-17021460D01*
X18554229Y-17021460D02*
X18535182Y-17030984D01*
X18535182Y-17030984D02*
X18516134Y-17030984D01*
X18516134Y-17030984D02*
X18497087Y-17021460D01*
X18497087Y-17021460D02*
X18487563Y-17011936D01*
X18487563Y-17011936D02*
X18478039Y-16992889D01*
X18478039Y-16992889D02*
X18468515Y-16954793D01*
X18468515Y-16954793D02*
X18468515Y-16907174D01*
X18468515Y-16907174D02*
X18478039Y-16869079D01*
X18478039Y-16869079D02*
X18487563Y-16850031D01*
X18487563Y-16850031D02*
X18497087Y-16840508D01*
X18497087Y-16840508D02*
X18516134Y-16830984D01*
X18668515Y-17011936D02*
X18678039Y-17021460D01*
X18678039Y-17021460D02*
X18668515Y-17030984D01*
X18668515Y-17030984D02*
X18658991Y-17021460D01*
X18658991Y-17021460D02*
X18668515Y-17011936D01*
X18668515Y-17011936D02*
X18668515Y-17030984D01*
X18801848Y-16830984D02*
X18820896Y-16830984D01*
X18820896Y-16830984D02*
X18839944Y-16840508D01*
X18839944Y-16840508D02*
X18849468Y-16850031D01*
X18849468Y-16850031D02*
X18858991Y-16869079D01*
X18858991Y-16869079D02*
X18868515Y-16907174D01*
X18868515Y-16907174D02*
X18868515Y-16954793D01*
X18868515Y-16954793D02*
X18858991Y-16992889D01*
X18858991Y-16992889D02*
X18849468Y-17011936D01*
X18849468Y-17011936D02*
X18839944Y-17021460D01*
X18839944Y-17021460D02*
X18820896Y-17030984D01*
X18820896Y-17030984D02*
X18801848Y-17030984D01*
X18801848Y-17030984D02*
X18782801Y-17021460D01*
X18782801Y-17021460D02*
X18773277Y-17011936D01*
X18773277Y-17011936D02*
X18763753Y-16992889D01*
X18763753Y-16992889D02*
X18754229Y-16954793D01*
X18754229Y-16954793D02*
X18754229Y-16907174D01*
X18754229Y-16907174D02*
X18763753Y-16869079D01*
X18763753Y-16869079D02*
X18773277Y-16850031D01*
X18773277Y-16850031D02*
X18782801Y-16840508D01*
X18782801Y-16840508D02*
X18801848Y-16830984D01*
X19049468Y-16830984D02*
X18954229Y-16830984D01*
X18954229Y-16830984D02*
X18944706Y-16926222D01*
X18944706Y-16926222D02*
X18954229Y-16916698D01*
X18954229Y-16916698D02*
X18973277Y-16907174D01*
X18973277Y-16907174D02*
X19020896Y-16907174D01*
X19020896Y-16907174D02*
X19039944Y-16916698D01*
X19039944Y-16916698D02*
X19049468Y-16926222D01*
X19049468Y-16926222D02*
X19058991Y-16945270D01*
X19058991Y-16945270D02*
X19058991Y-16992889D01*
X19058991Y-16992889D02*
X19049468Y-17011936D01*
X19049468Y-17011936D02*
X19039944Y-17021460D01*
X19039944Y-17021460D02*
X19020896Y-17030984D01*
X19020896Y-17030984D02*
X18973277Y-17030984D01*
X18973277Y-17030984D02*
X18954229Y-17021460D01*
X18954229Y-17021460D02*
X18944706Y-17011936D01*
X19154229Y-17030984D02*
X19192325Y-17030984D01*
X19192325Y-17030984D02*
X19211372Y-17021460D01*
X19211372Y-17021460D02*
X19220896Y-17011936D01*
X19220896Y-17011936D02*
X19239944Y-16983365D01*
X19239944Y-16983365D02*
X19249468Y-16945270D01*
X19249468Y-16945270D02*
X19249468Y-16869079D01*
X19249468Y-16869079D02*
X19239944Y-16850031D01*
X19239944Y-16850031D02*
X19230420Y-16840508D01*
X19230420Y-16840508D02*
X19211372Y-16830984D01*
X19211372Y-16830984D02*
X19173277Y-16830984D01*
X19173277Y-16830984D02*
X19154229Y-16840508D01*
X19154229Y-16840508D02*
X19144706Y-16850031D01*
X19144706Y-16850031D02*
X19135182Y-16869079D01*
X19135182Y-16869079D02*
X19135182Y-16916698D01*
X19135182Y-16916698D02*
X19144706Y-16935746D01*
X19144706Y-16935746D02*
X19154229Y-16945270D01*
X19154229Y-16945270D02*
X19173277Y-16954793D01*
X19173277Y-16954793D02*
X19211372Y-16954793D01*
X19211372Y-16954793D02*
X19230420Y-16945270D01*
X19230420Y-16945270D02*
X19239944Y-16935746D01*
X19239944Y-16935746D02*
X19249468Y-16916698D01*
X19439944Y-17030984D02*
X19325658Y-17030984D01*
X19382801Y-17030984D02*
X19382801Y-16830984D01*
X19382801Y-16830984D02*
X19363753Y-16859555D01*
X19363753Y-16859555D02*
X19344706Y-16878603D01*
X19344706Y-16878603D02*
X19325658Y-16888127D01*
X19516134Y-16830984D02*
X19516134Y-16869079D01*
X19592325Y-16830984D02*
X19592325Y-16869079D01*
X19887563Y-17107174D02*
X19878039Y-17097650D01*
X19878039Y-17097650D02*
X19858991Y-17069079D01*
X19858991Y-17069079D02*
X19849468Y-17050031D01*
X19849468Y-17050031D02*
X19839944Y-17021460D01*
X19839944Y-17021460D02*
X19830420Y-16973841D01*
X19830420Y-16973841D02*
X19830420Y-16935746D01*
X19830420Y-16935746D02*
X19839944Y-16888127D01*
X19839944Y-16888127D02*
X19849468Y-16859555D01*
X19849468Y-16859555D02*
X19858991Y-16840508D01*
X19858991Y-16840508D02*
X19878039Y-16811936D01*
X19878039Y-16811936D02*
X19887563Y-16802412D01*
X20049468Y-16897650D02*
X20049468Y-17030984D01*
X20001849Y-16821460D02*
X19954230Y-16964317D01*
X19954230Y-16964317D02*
X20078039Y-16964317D01*
X20306611Y-17030984D02*
X20306611Y-16830984D01*
X20392325Y-17030984D02*
X20392325Y-16926222D01*
X20392325Y-16926222D02*
X20382801Y-16907174D01*
X20382801Y-16907174D02*
X20363753Y-16897650D01*
X20363753Y-16897650D02*
X20335182Y-16897650D01*
X20335182Y-16897650D02*
X20316134Y-16907174D01*
X20316134Y-16907174D02*
X20306611Y-16916698D01*
X20516134Y-17030984D02*
X20497087Y-17021460D01*
X20497087Y-17021460D02*
X20487563Y-17011936D01*
X20487563Y-17011936D02*
X20478039Y-16992889D01*
X20478039Y-16992889D02*
X20478039Y-16935746D01*
X20478039Y-16935746D02*
X20487563Y-16916698D01*
X20487563Y-16916698D02*
X20497087Y-16907174D01*
X20497087Y-16907174D02*
X20516134Y-16897650D01*
X20516134Y-16897650D02*
X20544706Y-16897650D01*
X20544706Y-16897650D02*
X20563753Y-16907174D01*
X20563753Y-16907174D02*
X20573277Y-16916698D01*
X20573277Y-16916698D02*
X20582801Y-16935746D01*
X20582801Y-16935746D02*
X20582801Y-16992889D01*
X20582801Y-16992889D02*
X20573277Y-17011936D01*
X20573277Y-17011936D02*
X20563753Y-17021460D01*
X20563753Y-17021460D02*
X20544706Y-17030984D01*
X20544706Y-17030984D02*
X20516134Y-17030984D01*
X20697087Y-17030984D02*
X20678039Y-17021460D01*
X20678039Y-17021460D02*
X20668515Y-17002412D01*
X20668515Y-17002412D02*
X20668515Y-16830984D01*
X20849468Y-17021460D02*
X20830420Y-17030984D01*
X20830420Y-17030984D02*
X20792325Y-17030984D01*
X20792325Y-17030984D02*
X20773277Y-17021460D01*
X20773277Y-17021460D02*
X20763753Y-17002412D01*
X20763753Y-17002412D02*
X20763753Y-16926222D01*
X20763753Y-16926222D02*
X20773277Y-16907174D01*
X20773277Y-16907174D02*
X20792325Y-16897650D01*
X20792325Y-16897650D02*
X20830420Y-16897650D01*
X20830420Y-16897650D02*
X20849468Y-16907174D01*
X20849468Y-16907174D02*
X20858992Y-16926222D01*
X20858992Y-16926222D02*
X20858992Y-16945270D01*
X20858992Y-16945270D02*
X20763753Y-16964317D01*
X20935182Y-17021460D02*
X20954230Y-17030984D01*
X20954230Y-17030984D02*
X20992325Y-17030984D01*
X20992325Y-17030984D02*
X21011373Y-17021460D01*
X21011373Y-17021460D02*
X21020896Y-17002412D01*
X21020896Y-17002412D02*
X21020896Y-16992889D01*
X21020896Y-16992889D02*
X21011373Y-16973841D01*
X21011373Y-16973841D02*
X20992325Y-16964317D01*
X20992325Y-16964317D02*
X20963753Y-16964317D01*
X20963753Y-16964317D02*
X20944706Y-16954793D01*
X20944706Y-16954793D02*
X20935182Y-16935746D01*
X20935182Y-16935746D02*
X20935182Y-16926222D01*
X20935182Y-16926222D02*
X20944706Y-16907174D01*
X20944706Y-16907174D02*
X20963753Y-16897650D01*
X20963753Y-16897650D02*
X20992325Y-16897650D01*
X20992325Y-16897650D02*
X21011373Y-16907174D01*
X21087563Y-17107174D02*
X21097087Y-17097650D01*
X21097087Y-17097650D02*
X21116134Y-17069079D01*
X21116134Y-17069079D02*
X21125658Y-17050031D01*
X21125658Y-17050031D02*
X21135182Y-17021460D01*
X21135182Y-17021460D02*
X21144706Y-16973841D01*
X21144706Y-16973841D02*
X21144706Y-16935746D01*
X21144706Y-16935746D02*
X21135182Y-16888127D01*
X21135182Y-16888127D02*
X21125658Y-16859555D01*
X21125658Y-16859555D02*
X21116134Y-16840508D01*
X21116134Y-16840508D02*
X21097087Y-16811936D01*
X21097087Y-16811936D02*
X21087563Y-16802412D01*
X16112500Y-17109500D02*
X16312500Y-17309500D01*
X16312500Y-17109500D02*
X16112500Y-17309500D01*
X16212500Y-17109500D02*
X16212500Y-17309500D01*
X16112500Y-17209500D02*
X16312500Y-17209500D01*
X16563753Y-17120031D02*
X16573277Y-17110508D01*
X16573277Y-17110508D02*
X16592324Y-17100984D01*
X16592324Y-17100984D02*
X16639943Y-17100984D01*
X16639943Y-17100984D02*
X16658991Y-17110508D01*
X16658991Y-17110508D02*
X16668515Y-17120031D01*
X16668515Y-17120031D02*
X16678039Y-17139079D01*
X16678039Y-17139079D02*
X16678039Y-17158127D01*
X16678039Y-17158127D02*
X16668515Y-17186698D01*
X16668515Y-17186698D02*
X16554229Y-17300984D01*
X16554229Y-17300984D02*
X16678039Y-17300984D01*
X16763753Y-17281936D02*
X16773277Y-17291460D01*
X16773277Y-17291460D02*
X16763753Y-17300984D01*
X16763753Y-17300984D02*
X16754229Y-17291460D01*
X16754229Y-17291460D02*
X16763753Y-17281936D01*
X16763753Y-17281936D02*
X16763753Y-17300984D01*
X16897086Y-17100984D02*
X16916134Y-17100984D01*
X16916134Y-17100984D02*
X16935182Y-17110508D01*
X16935182Y-17110508D02*
X16944705Y-17120031D01*
X16944705Y-17120031D02*
X16954229Y-17139079D01*
X16954229Y-17139079D02*
X16963753Y-17177174D01*
X16963753Y-17177174D02*
X16963753Y-17224793D01*
X16963753Y-17224793D02*
X16954229Y-17262889D01*
X16954229Y-17262889D02*
X16944705Y-17281936D01*
X16944705Y-17281936D02*
X16935182Y-17291460D01*
X16935182Y-17291460D02*
X16916134Y-17300984D01*
X16916134Y-17300984D02*
X16897086Y-17300984D01*
X16897086Y-17300984D02*
X16878039Y-17291460D01*
X16878039Y-17291460D02*
X16868515Y-17281936D01*
X16868515Y-17281936D02*
X16858991Y-17262889D01*
X16858991Y-17262889D02*
X16849467Y-17224793D01*
X16849467Y-17224793D02*
X16849467Y-17177174D01*
X16849467Y-17177174D02*
X16858991Y-17139079D01*
X16858991Y-17139079D02*
X16868515Y-17120031D01*
X16868515Y-17120031D02*
X16878039Y-17110508D01*
X16878039Y-17110508D02*
X16897086Y-17100984D01*
X17087563Y-17100984D02*
X17106610Y-17100984D01*
X17106610Y-17100984D02*
X17125658Y-17110508D01*
X17125658Y-17110508D02*
X17135182Y-17120031D01*
X17135182Y-17120031D02*
X17144705Y-17139079D01*
X17144705Y-17139079D02*
X17154229Y-17177174D01*
X17154229Y-17177174D02*
X17154229Y-17224793D01*
X17154229Y-17224793D02*
X17144705Y-17262889D01*
X17144705Y-17262889D02*
X17135182Y-17281936D01*
X17135182Y-17281936D02*
X17125658Y-17291460D01*
X17125658Y-17291460D02*
X17106610Y-17300984D01*
X17106610Y-17300984D02*
X17087563Y-17300984D01*
X17087563Y-17300984D02*
X17068515Y-17291460D01*
X17068515Y-17291460D02*
X17058991Y-17281936D01*
X17058991Y-17281936D02*
X17049467Y-17262889D01*
X17049467Y-17262889D02*
X17039944Y-17224793D01*
X17039944Y-17224793D02*
X17039944Y-17177174D01*
X17039944Y-17177174D02*
X17049467Y-17139079D01*
X17049467Y-17139079D02*
X17058991Y-17120031D01*
X17058991Y-17120031D02*
X17068515Y-17110508D01*
X17068515Y-17110508D02*
X17087563Y-17100984D01*
X17278039Y-17100984D02*
X17297086Y-17100984D01*
X17297086Y-17100984D02*
X17316134Y-17110508D01*
X17316134Y-17110508D02*
X17325658Y-17120031D01*
X17325658Y-17120031D02*
X17335182Y-17139079D01*
X17335182Y-17139079D02*
X17344705Y-17177174D01*
X17344705Y-17177174D02*
X17344705Y-17224793D01*
X17344705Y-17224793D02*
X17335182Y-17262889D01*
X17335182Y-17262889D02*
X17325658Y-17281936D01*
X17325658Y-17281936D02*
X17316134Y-17291460D01*
X17316134Y-17291460D02*
X17297086Y-17300984D01*
X17297086Y-17300984D02*
X17278039Y-17300984D01*
X17278039Y-17300984D02*
X17258991Y-17291460D01*
X17258991Y-17291460D02*
X17249467Y-17281936D01*
X17249467Y-17281936D02*
X17239944Y-17262889D01*
X17239944Y-17262889D02*
X17230420Y-17224793D01*
X17230420Y-17224793D02*
X17230420Y-17177174D01*
X17230420Y-17177174D02*
X17239944Y-17139079D01*
X17239944Y-17139079D02*
X17249467Y-17120031D01*
X17249467Y-17120031D02*
X17258991Y-17110508D01*
X17258991Y-17110508D02*
X17278039Y-17100984D01*
X17430420Y-17300984D02*
X17430420Y-17167650D01*
X17430420Y-17186698D02*
X17439944Y-17177174D01*
X17439944Y-17177174D02*
X17458991Y-17167650D01*
X17458991Y-17167650D02*
X17487563Y-17167650D01*
X17487563Y-17167650D02*
X17506610Y-17177174D01*
X17506610Y-17177174D02*
X17516134Y-17196222D01*
X17516134Y-17196222D02*
X17516134Y-17300984D01*
X17516134Y-17196222D02*
X17525658Y-17177174D01*
X17525658Y-17177174D02*
X17544705Y-17167650D01*
X17544705Y-17167650D02*
X17573277Y-17167650D01*
X17573277Y-17167650D02*
X17592325Y-17177174D01*
X17592325Y-17177174D02*
X17601848Y-17196222D01*
X17601848Y-17196222D02*
X17601848Y-17300984D01*
X17697086Y-17300984D02*
X17697086Y-17167650D01*
X17697086Y-17186698D02*
X17706610Y-17177174D01*
X17706610Y-17177174D02*
X17725658Y-17167650D01*
X17725658Y-17167650D02*
X17754229Y-17167650D01*
X17754229Y-17167650D02*
X17773277Y-17177174D01*
X17773277Y-17177174D02*
X17782801Y-17196222D01*
X17782801Y-17196222D02*
X17782801Y-17300984D01*
X17782801Y-17196222D02*
X17792325Y-17177174D01*
X17792325Y-17177174D02*
X17811372Y-17167650D01*
X17811372Y-17167650D02*
X17839944Y-17167650D01*
X17839944Y-17167650D02*
X17858991Y-17177174D01*
X17858991Y-17177174D02*
X17868515Y-17196222D01*
X17868515Y-17196222D02*
X17868515Y-17300984D01*
X18258991Y-17091460D02*
X18087563Y-17348603D01*
X18516134Y-17100984D02*
X18535182Y-17100984D01*
X18535182Y-17100984D02*
X18554229Y-17110508D01*
X18554229Y-17110508D02*
X18563753Y-17120031D01*
X18563753Y-17120031D02*
X18573277Y-17139079D01*
X18573277Y-17139079D02*
X18582801Y-17177174D01*
X18582801Y-17177174D02*
X18582801Y-17224793D01*
X18582801Y-17224793D02*
X18573277Y-17262889D01*
X18573277Y-17262889D02*
X18563753Y-17281936D01*
X18563753Y-17281936D02*
X18554229Y-17291460D01*
X18554229Y-17291460D02*
X18535182Y-17300984D01*
X18535182Y-17300984D02*
X18516134Y-17300984D01*
X18516134Y-17300984D02*
X18497087Y-17291460D01*
X18497087Y-17291460D02*
X18487563Y-17281936D01*
X18487563Y-17281936D02*
X18478039Y-17262889D01*
X18478039Y-17262889D02*
X18468515Y-17224793D01*
X18468515Y-17224793D02*
X18468515Y-17177174D01*
X18468515Y-17177174D02*
X18478039Y-17139079D01*
X18478039Y-17139079D02*
X18487563Y-17120031D01*
X18487563Y-17120031D02*
X18497087Y-17110508D01*
X18497087Y-17110508D02*
X18516134Y-17100984D01*
X18668515Y-17281936D02*
X18678039Y-17291460D01*
X18678039Y-17291460D02*
X18668515Y-17300984D01*
X18668515Y-17300984D02*
X18658991Y-17291460D01*
X18658991Y-17291460D02*
X18668515Y-17281936D01*
X18668515Y-17281936D02*
X18668515Y-17300984D01*
X18801848Y-17100984D02*
X18820896Y-17100984D01*
X18820896Y-17100984D02*
X18839944Y-17110508D01*
X18839944Y-17110508D02*
X18849468Y-17120031D01*
X18849468Y-17120031D02*
X18858991Y-17139079D01*
X18858991Y-17139079D02*
X18868515Y-17177174D01*
X18868515Y-17177174D02*
X18868515Y-17224793D01*
X18868515Y-17224793D02*
X18858991Y-17262889D01*
X18858991Y-17262889D02*
X18849468Y-17281936D01*
X18849468Y-17281936D02*
X18839944Y-17291460D01*
X18839944Y-17291460D02*
X18820896Y-17300984D01*
X18820896Y-17300984D02*
X18801848Y-17300984D01*
X18801848Y-17300984D02*
X18782801Y-17291460D01*
X18782801Y-17291460D02*
X18773277Y-17281936D01*
X18773277Y-17281936D02*
X18763753Y-17262889D01*
X18763753Y-17262889D02*
X18754229Y-17224793D01*
X18754229Y-17224793D02*
X18754229Y-17177174D01*
X18754229Y-17177174D02*
X18763753Y-17139079D01*
X18763753Y-17139079D02*
X18773277Y-17120031D01*
X18773277Y-17120031D02*
X18782801Y-17110508D01*
X18782801Y-17110508D02*
X18801848Y-17100984D01*
X18935182Y-17100984D02*
X19068515Y-17100984D01*
X19068515Y-17100984D02*
X18982801Y-17300984D01*
X19173277Y-17186698D02*
X19154229Y-17177174D01*
X19154229Y-17177174D02*
X19144706Y-17167650D01*
X19144706Y-17167650D02*
X19135182Y-17148603D01*
X19135182Y-17148603D02*
X19135182Y-17139079D01*
X19135182Y-17139079D02*
X19144706Y-17120031D01*
X19144706Y-17120031D02*
X19154229Y-17110508D01*
X19154229Y-17110508D02*
X19173277Y-17100984D01*
X19173277Y-17100984D02*
X19211372Y-17100984D01*
X19211372Y-17100984D02*
X19230420Y-17110508D01*
X19230420Y-17110508D02*
X19239944Y-17120031D01*
X19239944Y-17120031D02*
X19249468Y-17139079D01*
X19249468Y-17139079D02*
X19249468Y-17148603D01*
X19249468Y-17148603D02*
X19239944Y-17167650D01*
X19239944Y-17167650D02*
X19230420Y-17177174D01*
X19230420Y-17177174D02*
X19211372Y-17186698D01*
X19211372Y-17186698D02*
X19173277Y-17186698D01*
X19173277Y-17186698D02*
X19154229Y-17196222D01*
X19154229Y-17196222D02*
X19144706Y-17205746D01*
X19144706Y-17205746D02*
X19135182Y-17224793D01*
X19135182Y-17224793D02*
X19135182Y-17262889D01*
X19135182Y-17262889D02*
X19144706Y-17281936D01*
X19144706Y-17281936D02*
X19154229Y-17291460D01*
X19154229Y-17291460D02*
X19173277Y-17300984D01*
X19173277Y-17300984D02*
X19211372Y-17300984D01*
X19211372Y-17300984D02*
X19230420Y-17291460D01*
X19230420Y-17291460D02*
X19239944Y-17281936D01*
X19239944Y-17281936D02*
X19249468Y-17262889D01*
X19249468Y-17262889D02*
X19249468Y-17224793D01*
X19249468Y-17224793D02*
X19239944Y-17205746D01*
X19239944Y-17205746D02*
X19230420Y-17196222D01*
X19230420Y-17196222D02*
X19211372Y-17186698D01*
X19316134Y-17100984D02*
X19449468Y-17100984D01*
X19449468Y-17100984D02*
X19363753Y-17300984D01*
X19516134Y-17100984D02*
X19516134Y-17139079D01*
X19592325Y-17100984D02*
X19592325Y-17139079D01*
X19887563Y-17377174D02*
X19878039Y-17367650D01*
X19878039Y-17367650D02*
X19858991Y-17339079D01*
X19858991Y-17339079D02*
X19849468Y-17320031D01*
X19849468Y-17320031D02*
X19839944Y-17291460D01*
X19839944Y-17291460D02*
X19830420Y-17243841D01*
X19830420Y-17243841D02*
X19830420Y-17205746D01*
X19830420Y-17205746D02*
X19839944Y-17158127D01*
X19839944Y-17158127D02*
X19849468Y-17129555D01*
X19849468Y-17129555D02*
X19858991Y-17110508D01*
X19858991Y-17110508D02*
X19878039Y-17081936D01*
X19878039Y-17081936D02*
X19887563Y-17072412D01*
X20049468Y-17167650D02*
X20049468Y-17300984D01*
X20001849Y-17091460D02*
X19954230Y-17234317D01*
X19954230Y-17234317D02*
X20078039Y-17234317D01*
X20306611Y-17300984D02*
X20306611Y-17100984D01*
X20392325Y-17300984D02*
X20392325Y-17196222D01*
X20392325Y-17196222D02*
X20382801Y-17177174D01*
X20382801Y-17177174D02*
X20363753Y-17167650D01*
X20363753Y-17167650D02*
X20335182Y-17167650D01*
X20335182Y-17167650D02*
X20316134Y-17177174D01*
X20316134Y-17177174D02*
X20306611Y-17186698D01*
X20516134Y-17300984D02*
X20497087Y-17291460D01*
X20497087Y-17291460D02*
X20487563Y-17281936D01*
X20487563Y-17281936D02*
X20478039Y-17262889D01*
X20478039Y-17262889D02*
X20478039Y-17205746D01*
X20478039Y-17205746D02*
X20487563Y-17186698D01*
X20487563Y-17186698D02*
X20497087Y-17177174D01*
X20497087Y-17177174D02*
X20516134Y-17167650D01*
X20516134Y-17167650D02*
X20544706Y-17167650D01*
X20544706Y-17167650D02*
X20563753Y-17177174D01*
X20563753Y-17177174D02*
X20573277Y-17186698D01*
X20573277Y-17186698D02*
X20582801Y-17205746D01*
X20582801Y-17205746D02*
X20582801Y-17262889D01*
X20582801Y-17262889D02*
X20573277Y-17281936D01*
X20573277Y-17281936D02*
X20563753Y-17291460D01*
X20563753Y-17291460D02*
X20544706Y-17300984D01*
X20544706Y-17300984D02*
X20516134Y-17300984D01*
X20697087Y-17300984D02*
X20678039Y-17291460D01*
X20678039Y-17291460D02*
X20668515Y-17272412D01*
X20668515Y-17272412D02*
X20668515Y-17100984D01*
X20849468Y-17291460D02*
X20830420Y-17300984D01*
X20830420Y-17300984D02*
X20792325Y-17300984D01*
X20792325Y-17300984D02*
X20773277Y-17291460D01*
X20773277Y-17291460D02*
X20763753Y-17272412D01*
X20763753Y-17272412D02*
X20763753Y-17196222D01*
X20763753Y-17196222D02*
X20773277Y-17177174D01*
X20773277Y-17177174D02*
X20792325Y-17167650D01*
X20792325Y-17167650D02*
X20830420Y-17167650D01*
X20830420Y-17167650D02*
X20849468Y-17177174D01*
X20849468Y-17177174D02*
X20858992Y-17196222D01*
X20858992Y-17196222D02*
X20858992Y-17215270D01*
X20858992Y-17215270D02*
X20763753Y-17234317D01*
X20935182Y-17291460D02*
X20954230Y-17300984D01*
X20954230Y-17300984D02*
X20992325Y-17300984D01*
X20992325Y-17300984D02*
X21011373Y-17291460D01*
X21011373Y-17291460D02*
X21020896Y-17272412D01*
X21020896Y-17272412D02*
X21020896Y-17262889D01*
X21020896Y-17262889D02*
X21011373Y-17243841D01*
X21011373Y-17243841D02*
X20992325Y-17234317D01*
X20992325Y-17234317D02*
X20963753Y-17234317D01*
X20963753Y-17234317D02*
X20944706Y-17224793D01*
X20944706Y-17224793D02*
X20935182Y-17205746D01*
X20935182Y-17205746D02*
X20935182Y-17196222D01*
X20935182Y-17196222D02*
X20944706Y-17177174D01*
X20944706Y-17177174D02*
X20963753Y-17167650D01*
X20963753Y-17167650D02*
X20992325Y-17167650D01*
X20992325Y-17167650D02*
X21011373Y-17177174D01*
X21087563Y-17377174D02*
X21097087Y-17367650D01*
X21097087Y-17367650D02*
X21116134Y-17339079D01*
X21116134Y-17339079D02*
X21125658Y-17320031D01*
X21125658Y-17320031D02*
X21135182Y-17291460D01*
X21135182Y-17291460D02*
X21144706Y-17243841D01*
X21144706Y-17243841D02*
X21144706Y-17205746D01*
X21144706Y-17205746D02*
X21135182Y-17158127D01*
X21135182Y-17158127D02*
X21125658Y-17129555D01*
X21125658Y-17129555D02*
X21116134Y-17110508D01*
X21116134Y-17110508D02*
X21097087Y-17081936D01*
X21097087Y-17081936D02*
X21087563Y-17072412D01*
M02*
